<svg width="20" height="20" viewBox="0 0 20 20" fill="none" xmlns="http://www.w3.org/2000/svg">
<circle cx="10" cy="10" r="10" fill="white"/>
<path d="M15.9818 7.25423C15.7913 6.8131 15.5166 6.41336 15.173 6.07737C14.8293 5.74039 14.4239 5.47259 13.9791 5.28854C13.5179 5.09693 13.0232 4.99886 12.5237 5.00001C11.823 5.00001 11.1393 5.19189 10.5452 5.55433C10.4031 5.64103 10.268 5.73626 10.1401 5.84001C10.0122 5.73626 9.87718 5.64103 9.73505 5.55433C9.14093 5.19189 8.45727 5.00001 7.75656 5.00001C7.25199 5.00001 6.76306 5.09666 6.30113 5.28854C5.85483 5.47331 5.45259 5.7391 5.10721 6.07737C4.76325 6.41298 4.48848 6.81282 4.29848 7.25423C4.10091 7.71332 4 8.20083 4 8.70256C4 9.17586 4.09665 9.66906 4.28853 10.1708C4.44914 10.5901 4.67939 11.025 4.97361 11.4642C5.4398 12.1592 6.08082 12.8841 6.87676 13.6189C8.19575 14.837 9.50195 15.6784 9.55738 15.7125L9.89423 15.9286C10.0435 16.0238 10.2354 16.0238 10.3846 15.9286L10.7214 15.7125C10.7769 15.677 12.0817 14.837 13.4021 13.6189C14.198 12.8841 14.839 12.1592 15.3052 11.4642C15.5994 11.025 15.8311 10.5901 15.9903 10.1708C16.1822 9.66906 16.2788 9.17586 16.2788 8.70256C16.2802 8.20083 16.1793 7.71332 15.9818 7.25423ZM10.1401 14.8043C10.1401 14.8043 5.08021 11.5623 5.08021 8.70256C5.08021 7.25423 6.27838 6.08022 7.75656 6.08022C8.79555 6.08022 9.69667 6.66012 10.1401 7.50723C10.5836 6.66012 11.4847 6.08022 12.5237 6.08022C14.0019 6.08022 15.2 7.25423 15.2 8.70256C15.2 11.5623 10.1401 14.8043 10.1401 14.8043Z" fill="black"/>
</svg>
