<svg width="182" height="137" viewBox="0 0 182 137" fill="none" xmlns="http://www.w3.org/2000/svg">
<g filter="url(#filter0_d_21010_3253)">
<rect x="18" y="16" width="146" height="101" rx="17.4302" fill="#EDEDFD"/>
</g>
<rect x="42" y="58" width="29.0503" height="29.0503" rx="8.13407" fill="#EAF8EC"/>
<g filter="url(#filter1_bii_21010_3253)">
<rect x="42" y="58" width="29.0503" height="29.0503" rx="8.13407" fill="#30D6B0"/>
</g>
<path d="M57 62C55.0222 62 53.0888 62.5865 51.4443 63.6853C49.7998 64.7841 48.5181 66.3459 47.7612 68.1732C47.0043 70.0004 46.8063 72.0111 47.1922 73.9509C47.578 75.8907 48.5304 77.6725 49.9289 79.0711C51.3275 80.4696 53.1093 81.422 55.0491 81.8078C56.9889 82.1937 58.9996 81.9957 60.8268 81.2388C62.6541 80.4819 64.2159 79.2002 65.3147 77.5557C66.4135 75.9112 67 73.9778 67 72C67 69.3478 65.9464 66.8043 64.0711 64.9289C62.1957 63.0536 59.6522 62 57 62Z" stroke="white" stroke-width="2" stroke-miterlimit="10"/>
<path d="M53.8181 68.9482C53.8181 68.9482 53.8659 67.9539 54.9301 67.0977C55.5613 66.5891 56.3181 66.442 57 66.4318C57.621 66.4238 58.1755 66.5266 58.5074 66.6846C59.0755 66.9551 60.1818 67.6153 60.1818 69.0193C60.1818 70.4965 59.2159 71.1676 58.1153 71.9056C57.0147 72.6437 56.7159 73.4448 56.7159 74.2727" stroke="white" stroke-width="1.03658" stroke-miterlimit="10" stroke-linecap="round"/>
<path d="M56.6591 78.3635C57.2867 78.3635 57.7954 77.8548 57.7954 77.2272C57.7954 76.5996 57.2867 76.0908 56.6591 76.0908C56.0315 76.0908 55.5227 76.5996 55.5227 77.2272C55.5227 77.8548 56.0315 78.3635 56.6591 78.3635Z" fill="white"/>
<path d="M94.44 65.67V80H92.5V73.48H84.77V80H82.83V65.67H84.77V72.06H92.5V65.67H94.44ZM104.151 73.83C104.151 73.4167 104.091 73.04 103.971 72.7C103.858 72.3533 103.688 72.0567 103.461 71.81C103.241 71.5567 102.971 71.3633 102.651 71.23C102.331 71.09 101.968 71.02 101.561 71.02C100.708 71.02 100.031 71.27 99.5309 71.77C99.0376 72.2633 98.7309 72.95 98.6109 73.83H104.151ZM105.591 78.58C105.371 78.8467 105.108 79.08 104.801 79.28C104.494 79.4733 104.164 79.6333 103.811 79.76C103.464 79.8867 103.104 79.98 102.731 80.04C102.358 80.1067 101.988 80.14 101.621 80.14C100.921 80.14 100.274 80.0233 99.6809 79.79C99.0943 79.55 98.5843 79.2033 98.1509 78.75C97.7243 78.29 97.3909 77.7233 97.1509 77.05C96.9109 76.3767 96.7909 75.6033 96.7909 74.73C96.7909 74.0233 96.8976 73.3633 97.1109 72.75C97.3309 72.1367 97.6443 71.6067 98.0509 71.16C98.4576 70.7067 98.9543 70.3533 99.5409 70.1C100.128 69.84 100.788 69.71 101.521 69.71C102.128 69.71 102.688 69.8133 103.201 70.02C103.721 70.22 104.168 70.5133 104.541 70.9C104.921 71.28 105.218 71.7533 105.431 72.32C105.644 72.88 105.751 73.52 105.751 74.24C105.751 74.52 105.721 74.7067 105.661 74.8C105.601 74.8933 105.488 74.94 105.321 74.94H98.5509C98.5709 75.58 98.6576 76.1367 98.8109 76.61C98.9709 77.0833 99.1909 77.48 99.4709 77.8C99.7509 78.1133 100.084 78.35 100.471 78.51C100.858 78.6633 101.291 78.74 101.771 78.74C102.218 78.74 102.601 78.69 102.921 78.59C103.248 78.4833 103.528 78.37 103.761 78.25C103.994 78.13 104.188 78.02 104.341 77.92C104.501 77.8133 104.638 77.76 104.751 77.76C104.898 77.76 105.011 77.8167 105.091 77.93L105.591 78.58ZM109.777 65.27V80H107.997V65.27H109.777ZM114.454 77.56C114.781 78 115.137 78.31 115.524 78.49C115.911 78.67 116.344 78.76 116.824 78.76C117.771 78.76 118.497 78.4233 119.004 77.75C119.511 77.0767 119.764 76.1167 119.764 74.87C119.764 74.21 119.704 73.6433 119.584 73.17C119.471 72.6967 119.304 72.31 119.084 72.01C118.864 71.7033 118.594 71.48 118.274 71.34C117.954 71.2 117.591 71.13 117.184 71.13C116.604 71.13 116.094 71.2633 115.654 71.53C115.221 71.7967 114.821 72.1733 114.454 72.66V77.56ZM114.364 71.44C114.791 70.9133 115.284 70.49 115.844 70.17C116.404 69.85 117.044 69.69 117.764 69.69C118.351 69.69 118.881 69.8033 119.354 70.03C119.827 70.25 120.231 70.58 120.564 71.02C120.897 71.4533 121.154 71.9933 121.334 72.64C121.514 73.2867 121.604 74.03 121.604 74.87C121.604 75.6167 121.504 76.3133 121.304 76.96C121.104 77.6 120.814 78.1567 120.434 78.63C120.061 79.0967 119.601 79.4667 119.054 79.74C118.514 80.0067 117.904 80.14 117.224 80.14C116.604 80.14 116.071 80.0367 115.624 79.83C115.184 79.6167 114.794 79.3233 114.454 78.95V83.43H112.664V69.87H113.734C113.987 69.87 114.144 69.9933 114.204 70.24L114.364 71.44Z" fill="#575AC2"/>
<defs>
<filter id="filter0_d_21010_3253" x="0.569841" y="0.893862" width="180.86" height="135.86" filterUnits="userSpaceOnUse" color-interpolation-filters="sRGB">
<feFlood flood-opacity="0" result="BackgroundImageFix"/>
<feColorMatrix in="SourceAlpha" type="matrix" values="0 0 0 0 0 0 0 0 0 0 0 0 0 0 0 0 0 0 127 0" result="hardAlpha"/>
<feOffset dy="2.32402"/>
<feGaussianBlur stdDeviation="8.71508"/>
<feComposite in2="hardAlpha" operator="out"/>
<feColorMatrix type="matrix" values="0 0 0 0 0 0 0 0 0 0 0 0 0 0 0 0 0 0 0.02 0"/>
<feBlend mode="normal" in2="BackgroundImageFix" result="effect1_dropShadow_21010_3253"/>
<feBlend mode="normal" in="SourceGraphic" in2="effect1_dropShadow_21010_3253" result="shape"/>
</filter>
<filter id="filter1_bii_21010_3253" x="38.0492" y="54.0492" width="36.9519" height="36.9519" filterUnits="userSpaceOnUse" color-interpolation-filters="sRGB">
<feFlood flood-opacity="0" result="BackgroundImageFix"/>
<feGaussianBlur in="BackgroundImage" stdDeviation="1.97542"/>
<feComposite in2="SourceAlpha" operator="in" result="effect1_backgroundBlur_21010_3253"/>
<feBlend mode="normal" in="SourceGraphic" in2="effect1_backgroundBlur_21010_3253" result="shape"/>
<feColorMatrix in="SourceAlpha" type="matrix" values="0 0 0 0 0 0 0 0 0 0 0 0 0 0 0 0 0 0 127 0" result="hardAlpha"/>
<feOffset dx="2.32402" dy="2.32402"/>
<feGaussianBlur stdDeviation="7.26257"/>
<feComposite in2="hardAlpha" operator="arithmetic" k2="-1" k3="1"/>
<feColorMatrix type="matrix" values="0 0 0 0 1 0 0 0 0 1 0 0 0 0 1 0 0 0 0.49 0"/>
<feBlend mode="normal" in2="shape" result="effect2_innerShadow_21010_3253"/>
<feColorMatrix in="SourceAlpha" type="matrix" values="0 0 0 0 0 0 0 0 0 0 0 0 0 0 0 0 0 0 127 0" result="hardAlpha"/>
<feOffset dx="-3.48603" dy="-1.93668"/>
<feGaussianBlur stdDeviation="5.81005"/>
<feComposite in2="hardAlpha" operator="arithmetic" k2="-1" k3="1"/>
<feColorMatrix type="matrix" values="0 0 0 0 0.439282 0 0 0 0 0.231788 0 0 0 0 0.704167 0 0 0 1 0"/>
<feBlend mode="normal" in2="effect2_innerShadow_21010_3253" result="effect3_innerShadow_21010_3253"/>
</filter>
</defs>
</svg>
