<svg width="182" height="137" viewBox="0 0 182 137" fill="none" xmlns="http://www.w3.org/2000/svg">
<g filter="url(#filter0_d_21010_3300)">
<rect x="18" y="16" width="146" height="101" rx="17.4302" fill="#EDEDFD"/>
</g>
<rect x="39" y="53" width="29.0503" height="29.0503" rx="8.13407" fill="#65B168"/>
<g filter="url(#filter1_bii_21010_3300)">
<rect x="39" y="53" width="29.0503" height="29.0503" rx="8.13407" fill="#43A047"/>
</g>
<path d="M47.1667 75.5001C47.1667 75.7211 47.2545 75.9331 47.4107 76.0893C47.567 76.2456 47.779 76.3334 48 76.3334H59.6667C59.8877 76.3334 60.0996 76.2456 60.2559 76.0893C60.4122 75.9331 60.5 75.7211 60.5 75.5001V60.5001C60.5 60.2791 60.4122 60.0671 60.2559 59.9108C60.0996 59.7546 59.8877 59.6668 59.6667 59.6668H48C47.779 59.6668 47.567 59.7546 47.4107 59.9108C47.2545 60.0671 47.1667 60.2791 47.1667 60.5001V75.5001Z" stroke="white" stroke-width="1.66667" stroke-linejoin="round"/>
<path d="M54.25 59.6667H59.25M57.1667 75.5V60.5V75.5ZM45.5 72.1667H48.8333H45.5ZM45.5 68H48.8333H45.5ZM45.5 63.8333H48.8333H45.5ZM54.25 76.3333H59.25H54.25Z" stroke="white" stroke-width="1.66667" stroke-linecap="round" stroke-linejoin="round"/>
<path d="M86.96 74.37V76H78.83V61.67H80.76V74.37H86.96ZM94.7408 69.83C94.7408 69.4167 94.6808 69.04 94.5608 68.7C94.4474 68.3533 94.2774 68.0567 94.0508 67.81C93.8308 67.5567 93.5608 67.3633 93.2408 67.23C92.9208 67.09 92.5574 67.02 92.1508 67.02C91.2974 67.02 90.6208 67.27 90.1208 67.77C89.6274 68.2633 89.3208 68.95 89.2008 69.83H94.7408ZM96.1808 74.58C95.9608 74.8467 95.6974 75.08 95.3908 75.28C95.0841 75.4733 94.7541 75.6333 94.4008 75.76C94.0541 75.8867 93.6941 75.98 93.3208 76.04C92.9474 76.1067 92.5774 76.14 92.2108 76.14C91.5108 76.14 90.8641 76.0233 90.2708 75.79C89.6841 75.55 89.1741 75.2033 88.7408 74.75C88.3141 74.29 87.9808 73.7233 87.7408 73.05C87.5008 72.3767 87.3808 71.6033 87.3808 70.73C87.3808 70.0233 87.4874 69.3633 87.7008 68.75C87.9208 68.1367 88.2341 67.6067 88.6408 67.16C89.0474 66.7067 89.5441 66.3533 90.1308 66.1C90.7174 65.84 91.3774 65.71 92.1108 65.71C92.7174 65.71 93.2774 65.8133 93.7908 66.02C94.3108 66.22 94.7574 66.5133 95.1308 66.9C95.5108 67.28 95.8074 67.7533 96.0208 68.32C96.2341 68.88 96.3408 69.52 96.3408 70.24C96.3408 70.52 96.3108 70.7067 96.2508 70.8C96.1908 70.8933 96.0774 70.94 95.9108 70.94H89.1408C89.1608 71.58 89.2474 72.1367 89.4008 72.61C89.5608 73.0833 89.7808 73.48 90.0608 73.8C90.3408 74.1133 90.6741 74.35 91.0608 74.51C91.4474 74.6633 91.8808 74.74 92.3608 74.74C92.8074 74.74 93.1908 74.69 93.5108 74.59C93.8374 74.4833 94.1174 74.37 94.3508 74.25C94.5841 74.13 94.7774 74.02 94.9308 73.92C95.0908 73.8133 95.2274 73.76 95.3408 73.76C95.4874 73.76 95.6008 73.8167 95.6808 73.93L96.1808 74.58ZM105.127 68.28C104.794 67.8333 104.434 67.5233 104.047 67.35C103.661 67.17 103.227 67.08 102.747 67.08C101.807 67.08 101.084 67.4167 100.577 68.09C100.071 68.7633 99.8172 69.7233 99.8172 70.97C99.8172 71.63 99.8739 72.1967 99.9872 72.67C100.101 73.1367 100.267 73.5233 100.487 73.83C100.707 74.13 100.977 74.35 101.297 74.49C101.617 74.63 101.981 74.7 102.387 74.7C102.974 74.7 103.484 74.5667 103.917 74.3C104.357 74.0333 104.761 73.6567 105.127 73.17V68.28ZM106.907 61.27V76H105.847C105.594 76 105.434 75.8767 105.367 75.63L105.207 74.4C104.774 74.92 104.281 75.34 103.727 75.66C103.174 75.98 102.534 76.14 101.807 76.14C101.227 76.14 100.701 76.03 100.227 75.81C99.7539 75.5833 99.3505 75.2533 99.0172 74.82C98.6839 74.3867 98.4272 73.8467 98.2472 73.2C98.0672 72.5533 97.9772 71.81 97.9772 70.97C97.9772 70.2233 98.0772 69.53 98.2772 68.89C98.4772 68.2433 98.7639 67.6833 99.1372 67.21C99.5105 66.7367 99.9672 66.3667 100.507 66.1C101.054 65.8267 101.667 65.69 102.347 65.69C102.967 65.69 103.497 65.7967 103.937 66.01C104.384 66.2167 104.781 66.5067 105.127 66.88V61.27H106.907ZM113.249 71.05C113.609 71.05 113.925 71 114.199 70.9C114.472 70.8 114.702 70.66 114.889 70.48C115.075 70.3 115.215 70.0867 115.309 69.84C115.402 69.5867 115.449 69.31 115.449 69.01C115.449 68.39 115.259 67.8967 114.879 67.53C114.505 67.1633 113.962 66.98 113.249 66.98C112.529 66.98 111.979 67.1633 111.599 67.53C111.225 67.8967 111.039 68.39 111.039 69.01C111.039 69.31 111.085 69.5867 111.179 69.84C111.279 70.0867 111.422 70.3 111.609 70.48C111.795 70.66 112.025 70.8 112.299 70.9C112.572 71 112.889 71.05 113.249 71.05ZM116.459 76.55C116.459 76.3033 116.389 76.1033 116.249 75.95C116.109 75.7967 115.919 75.6767 115.679 75.59C115.445 75.5033 115.172 75.4433 114.859 75.41C114.545 75.37 114.212 75.34 113.859 75.32C113.512 75.3 113.159 75.28 112.799 75.26C112.439 75.24 112.092 75.2067 111.759 75.16C111.385 75.3333 111.079 75.5533 110.839 75.82C110.605 76.08 110.489 76.3867 110.489 76.74C110.489 76.9667 110.545 77.1767 110.659 77.37C110.779 77.57 110.959 77.74 111.199 77.88C111.439 78.0267 111.739 78.14 112.099 78.22C112.465 78.3067 112.895 78.35 113.389 78.35C113.869 78.35 114.299 78.3067 114.679 78.22C115.059 78.1333 115.379 78.01 115.639 77.85C115.905 77.69 116.109 77.5 116.249 77.28C116.389 77.06 116.459 76.8167 116.459 76.55ZM118.269 66.27V66.93C118.269 67.15 118.129 67.29 117.849 67.35L116.699 67.5C116.925 67.94 117.039 68.4267 117.039 68.96C117.039 69.4533 116.942 69.9033 116.749 70.31C116.562 70.71 116.302 71.0533 115.969 71.34C115.635 71.6267 115.235 71.8467 114.769 72C114.302 72.1533 113.795 72.23 113.249 72.23C112.775 72.23 112.329 72.1733 111.909 72.06C111.695 72.1933 111.532 72.3367 111.419 72.49C111.305 72.6367 111.249 72.7867 111.249 72.94C111.249 73.18 111.345 73.3633 111.539 73.49C111.739 73.61 111.999 73.6967 112.319 73.75C112.639 73.8033 113.002 73.8367 113.409 73.85C113.822 73.8633 114.242 73.8867 114.669 73.92C115.102 73.9467 115.522 73.9967 115.929 74.07C116.342 74.1433 116.709 74.2633 117.029 74.43C117.349 74.5967 117.605 74.8267 117.799 75.12C117.999 75.4133 118.099 75.7933 118.099 76.26C118.099 76.6933 117.989 77.1133 117.769 77.52C117.555 77.9267 117.245 78.2867 116.839 78.6C116.432 78.92 115.932 79.1733 115.339 79.36C114.752 79.5533 114.089 79.65 113.349 79.65C112.609 79.65 111.962 79.5767 111.409 79.43C110.855 79.2833 110.395 79.0867 110.029 78.84C109.662 78.5933 109.385 78.3067 109.199 77.98C109.019 77.66 108.929 77.3233 108.929 76.97C108.929 76.47 109.085 76.0467 109.399 75.7C109.712 75.3533 110.142 75.0767 110.689 74.87C110.389 74.7367 110.149 74.56 109.969 74.34C109.795 74.1133 109.709 73.81 109.709 73.43C109.709 73.2833 109.735 73.1333 109.789 72.98C109.842 72.82 109.922 72.6633 110.029 72.51C110.142 72.35 110.279 72.2 110.439 72.06C110.599 71.92 110.785 71.7967 110.999 71.69C110.499 71.41 110.109 71.04 109.829 70.58C109.549 70.1133 109.409 69.5733 109.409 68.96C109.409 68.4667 109.502 68.02 109.689 67.62C109.882 67.2133 110.149 66.87 110.489 66.59C110.829 66.3033 111.232 66.0833 111.699 65.93C112.172 65.7767 112.689 65.7 113.249 65.7C113.689 65.7 114.099 65.75 114.479 65.85C114.859 65.9433 115.205 66.0833 115.519 66.27H118.269ZM126.733 69.83C126.733 69.4167 126.673 69.04 126.553 68.7C126.44 68.3533 126.27 68.0567 126.043 67.81C125.823 67.5567 125.553 67.3633 125.233 67.23C124.913 67.09 124.55 67.02 124.143 67.02C123.29 67.02 122.613 67.27 122.113 67.77C121.62 68.2633 121.313 68.95 121.193 69.83H126.733ZM128.173 74.58C127.953 74.8467 127.69 75.08 127.383 75.28C127.076 75.4733 126.746 75.6333 126.393 75.76C126.046 75.8867 125.686 75.98 125.313 76.04C124.94 76.1067 124.57 76.14 124.203 76.14C123.503 76.14 122.856 76.0233 122.263 75.79C121.676 75.55 121.166 75.2033 120.733 74.75C120.306 74.29 119.973 73.7233 119.733 73.05C119.493 72.3767 119.373 71.6033 119.373 70.73C119.373 70.0233 119.48 69.3633 119.693 68.75C119.913 68.1367 120.226 67.6067 120.633 67.16C121.04 66.7067 121.536 66.3533 122.123 66.1C122.71 65.84 123.37 65.71 124.103 65.71C124.71 65.71 125.27 65.8133 125.783 66.02C126.303 66.22 126.75 66.5133 127.123 66.9C127.503 67.28 127.8 67.7533 128.013 68.32C128.226 68.88 128.333 69.52 128.333 70.24C128.333 70.52 128.303 70.7067 128.243 70.8C128.183 70.8933 128.07 70.94 127.903 70.94H121.133C121.153 71.58 121.24 72.1367 121.393 72.61C121.553 73.0833 121.773 73.48 122.053 73.8C122.333 74.1133 122.666 74.35 123.053 74.51C123.44 74.6633 123.873 74.74 124.353 74.74C124.8 74.74 125.183 74.69 125.503 74.59C125.83 74.4833 126.11 74.37 126.343 74.25C126.576 74.13 126.77 74.02 126.923 73.92C127.083 73.8133 127.22 73.76 127.333 73.76C127.48 73.76 127.593 73.8167 127.673 73.93L128.173 74.58ZM132.209 67.9C132.529 67.2067 132.923 66.6667 133.389 66.28C133.856 65.8867 134.426 65.69 135.099 65.69C135.313 65.69 135.516 65.7133 135.709 65.76C135.909 65.8067 136.086 65.88 136.239 65.98L136.109 67.31C136.069 67.4767 135.969 67.56 135.809 67.56C135.716 67.56 135.579 67.54 135.399 67.5C135.219 67.46 135.016 67.44 134.789 67.44C134.469 67.44 134.183 67.4867 133.929 67.58C133.683 67.6733 133.459 67.8133 133.259 68C133.066 68.18 132.889 68.4067 132.729 68.68C132.576 68.9467 132.436 69.2533 132.309 69.6V76H130.519V65.87H131.539C131.733 65.87 131.866 65.9067 131.939 65.98C132.013 66.0533 132.063 66.18 132.089 66.36L132.209 67.9Z" fill="#575AC2"/>
<defs>
<filter id="filter0_d_21010_3300" x="0.569841" y="0.893862" width="180.86" height="135.86" filterUnits="userSpaceOnUse" color-interpolation-filters="sRGB">
<feFlood flood-opacity="0" result="BackgroundImageFix"/>
<feColorMatrix in="SourceAlpha" type="matrix" values="0 0 0 0 0 0 0 0 0 0 0 0 0 0 0 0 0 0 127 0" result="hardAlpha"/>
<feOffset dy="2.32402"/>
<feGaussianBlur stdDeviation="8.71508"/>
<feComposite in2="hardAlpha" operator="out"/>
<feColorMatrix type="matrix" values="0 0 0 0 0 0 0 0 0 0 0 0 0 0 0 0 0 0 0.02 0"/>
<feBlend mode="normal" in2="BackgroundImageFix" result="effect1_dropShadow_21010_3300"/>
<feBlend mode="normal" in="SourceGraphic" in2="effect1_dropShadow_21010_3300" result="shape"/>
</filter>
<filter id="filter1_bii_21010_3300" x="35.0492" y="49.0492" width="36.9519" height="36.9519" filterUnits="userSpaceOnUse" color-interpolation-filters="sRGB">
<feFlood flood-opacity="0" result="BackgroundImageFix"/>
<feGaussianBlur in="BackgroundImage" stdDeviation="1.97542"/>
<feComposite in2="SourceAlpha" operator="in" result="effect1_backgroundBlur_21010_3300"/>
<feBlend mode="normal" in="SourceGraphic" in2="effect1_backgroundBlur_21010_3300" result="shape"/>
<feColorMatrix in="SourceAlpha" type="matrix" values="0 0 0 0 0 0 0 0 0 0 0 0 0 0 0 0 0 0 127 0" result="hardAlpha"/>
<feOffset dx="2.32402" dy="2.32402"/>
<feGaussianBlur stdDeviation="7.26257"/>
<feComposite in2="hardAlpha" operator="arithmetic" k2="-1" k3="1"/>
<feColorMatrix type="matrix" values="0 0 0 0 1 0 0 0 0 1 0 0 0 0 1 0 0 0 0.49 0"/>
<feBlend mode="normal" in2="shape" result="effect2_innerShadow_21010_3300"/>
<feColorMatrix in="SourceAlpha" type="matrix" values="0 0 0 0 0 0 0 0 0 0 0 0 0 0 0 0 0 0 127 0" result="hardAlpha"/>
<feOffset dx="-3.48603" dy="-1.93668"/>
<feGaussianBlur stdDeviation="5.81005"/>
<feComposite in2="hardAlpha" operator="arithmetic" k2="-1" k3="1"/>
<feColorMatrix type="matrix" values="0 0 0 0 0.00473958 0 0 0 0 0.379167 0 0 0 0 0.174001 0 0 0 1 0"/>
<feBlend mode="normal" in2="effect2_innerShadow_21010_3300" result="effect3_innerShadow_21010_3300"/>
</filter>
</defs>
</svg>
