<svg width="16" height="16" viewBox="0 0 16 16" fill="none" xmlns="http://www.w3.org/2000/svg">
<path d="M3.22521 11.5002H1.07507V14.7254H3.22521V11.5002ZM8.60055 7.19992H6.45041V14.7254H8.60055V7.19992ZM13.9759 1.82458V14.7254H11.8258V1.82458H13.9759ZM11.8258 0.749512C11.5406 0.749512 11.2672 0.862777 11.0656 1.06439C10.864 1.26601 10.7507 1.53945 10.7507 1.82458V14.7254C10.7507 15.0105 10.864 15.284 11.0656 15.4856C11.2672 15.6872 11.5406 15.8005 11.8258 15.8005H13.9759C14.261 15.8005 14.5345 15.6872 14.7361 15.4856C14.9377 15.284 15.051 15.0105 15.051 14.7254V1.82458C15.051 1.53945 14.9377 1.26601 14.7361 1.06439C14.5345 0.862777 14.261 0.749512 13.9759 0.749512H11.8258ZM5.37534 7.19992C5.37534 6.9148 5.48861 6.64135 5.69022 6.43973C5.89184 6.23812 6.16529 6.12485 6.45041 6.12485H8.60055C8.88567 6.12485 9.15912 6.23812 9.36074 6.43973C9.56235 6.64135 9.67562 6.9148 9.67562 7.19992V14.7254C9.67562 15.0105 9.56235 15.284 9.36074 15.4856C9.15912 15.6872 8.88567 15.8005 8.60055 15.8005H6.45041C6.16529 15.8005 5.89184 15.6872 5.69022 15.4856C5.48861 15.284 5.37534 15.0105 5.37534 14.7254V7.19992ZM0 11.5002C0 11.2151 0.113266 10.9416 0.31488 10.74C0.516495 10.5384 0.789943 10.4251 1.07507 10.4251H3.22521C3.51033 10.4251 3.78378 10.5384 3.98539 10.74C4.18701 10.9416 4.30027 11.2151 4.30027 11.5002V14.7254C4.30027 15.0105 4.18701 15.284 3.98539 15.4856C3.78378 15.6872 3.51033 15.8005 3.22521 15.8005H1.07507C0.789943 15.8005 0.516495 15.6872 0.31488 15.4856C0.113266 15.284 0 15.0105 0 14.7254V11.5002Z" fill="#575AC2" fill-opacity="0.6"/>
</svg>
