<svg width="97" height="99" viewBox="0 0 97 99" fill="none" xmlns="http://www.w3.org/2000/svg">
<g filter="url(#filter0_d_20677_19813)">
<rect x="24" y="23.0486" width="48.0519" height="48.0519" rx="9.61039" fill="#EEEDFE"/>
<path fill-rule="evenodd" clip-rule="evenodd" d="M39.3333 37H44C45.2868 37 46.3333 38.0465 46.3333 39.3333V44C46.3333 45.2868 45.2868 46.3333 44 46.3333H39.3333C38.0465 46.3333 37 45.2868 37 44V39.3333C37 38.0465 38.0465 37 39.3333 37ZM51 37H55.6667C56.9535 37 58 38.0465 58 39.3333V44C58 45.2868 56.9535 46.3333 55.6667 46.3333H51C49.7132 46.3333 48.6667 45.2868 48.6667 44V39.3333C48.6667 38.0465 49.7132 37 51 37ZM44 48.6667H39.3333C38.0465 48.6667 37 49.7132 37 51V55.6667C37 56.9535 38.0465 58 39.3333 58H44C45.2868 58 46.3333 56.9535 46.3333 55.6667V51C46.3333 49.7132 45.2868 48.6667 44 48.6667ZM51 48.6667H55.6667C56.9535 48.6667 58 49.7132 58 51V55.6667C58 56.9535 56.9535 58 55.6667 58H51C49.7132 58 48.6667 56.9535 48.6667 55.6667V51C48.6667 49.7132 49.7132 48.6667 51 48.6667Z" fill="#284475"/>
<mask id="mask0_20677_19813" style="mask-type:alpha" maskUnits="userSpaceOnUse" x="37" y="37" width="21" height="21">
<path fill-rule="evenodd" clip-rule="evenodd" d="M39.3333 37H44C45.2868 37 46.3333 38.0465 46.3333 39.3333V44C46.3333 45.2868 45.2868 46.3333 44 46.3333H39.3333C38.0465 46.3333 37 45.2868 37 44V39.3333C37 38.0465 38.0465 37 39.3333 37ZM51 37H55.6667C56.9535 37 58 38.0465 58 39.3333V44C58 45.2868 56.9535 46.3333 55.6667 46.3333H51C49.7132 46.3333 48.6667 45.2868 48.6667 44V39.3333C48.6667 38.0465 49.7132 37 51 37ZM44 48.6667H39.3333C38.0465 48.6667 37 49.7132 37 51V55.6667C37 56.9535 38.0465 58 39.3333 58H44C45.2868 58 46.3333 56.9535 46.3333 55.6667V51C46.3333 49.7132 45.2868 48.6667 44 48.6667ZM51 48.6667H55.6667C56.9535 48.6667 58 49.7132 58 51V55.6667C58 56.9535 56.9535 58 55.6667 58H51C49.7132 58 48.6667 56.9535 48.6667 55.6667V51C48.6667 49.7132 49.7132 48.6667 51 48.6667Z" fill="white"/>
</mask>
<g mask="url(#mask0_20677_19813)">
</g>
</g>
<defs>
<filter id="filter0_d_20677_19813" x="-0.626623" y="0.824558" width="97.3052" height="97.3052" filterUnits="userSpaceOnUse" color-interpolation-filters="sRGB">
<feFlood flood-opacity="0" result="BackgroundImageFix"/>
<feColorMatrix in="SourceAlpha" type="matrix" values="0 0 0 0 0 0 0 0 0 0 0 0 0 0 0 0 0 0 127 0" result="hardAlpha"/>
<feOffset dy="2.4026"/>
<feGaussianBlur stdDeviation="12.3133"/>
<feComposite in2="hardAlpha" operator="out"/>
<feColorMatrix type="matrix" values="0 0 0 0 0 0 0 0 0 0 0 0 0 0 0 0 0 0 0.05 0"/>
<feBlend mode="normal" in2="BackgroundImageFix" result="effect1_dropShadow_20677_19813"/>
<feBlend mode="normal" in="SourceGraphic" in2="effect1_dropShadow_20677_19813" result="shape"/>
</filter>
</defs>
</svg>
