<svg width="230" height="137" viewBox="0 0 230 137" fill="none" xmlns="http://www.w3.org/2000/svg">
<g filter="url(#filter0_d_21010_3324)">
<rect x="18" y="16" width="194" height="101" rx="17.4302" fill="#EDEDFD"/>
</g>
<rect x="37" y="49" width="29.0503" height="29.0503" rx="8.13407" fill="#FDBC1F"/>
<g filter="url(#filter1_bii_21010_3324)">
<rect x="37" y="49" width="29.0503" height="29.0503" rx="8.13407" fill="#FFEAC1"/>
</g>
<path d="M51.5 72.75C52.4625 72.75 53.25 71.9625 53.25 71H49.75C49.75 71.9625 50.5375 72.75 51.5 72.75ZM56.75 67.5V63.125C56.75 60.4388 55.3237 58.19 52.8125 57.595V57C52.8125 56.2738 52.2262 55.6875 51.5 55.6875C50.7738 55.6875 50.1875 56.2738 50.1875 57V57.595C47.685 58.19 46.25 60.43 46.25 63.125V67.5L44.5 69.25V70.125H58.5V69.25L56.75 67.5ZM55 68.375H48V63.125C48 60.955 49.3212 59.1875 51.5 59.1875C53.6788 59.1875 55 60.955 55 63.125V68.375Z" fill="white"/>
<path d="M89.44 57.67V72H88.47C88.3167 72 88.1867 71.9733 88.08 71.92C87.98 71.8667 87.88 71.7767 87.78 71.65L79.49 60.85C79.5033 61.0167 79.5133 61.18 79.52 61.34C79.5267 61.5 79.53 61.65 79.53 61.79V72H77.83V57.67H78.83C78.9167 57.67 78.99 57.6767 79.05 57.69C79.11 57.6967 79.1633 57.7133 79.21 57.74C79.2567 57.76 79.3033 57.7933 79.35 57.84C79.3967 57.88 79.4467 57.9333 79.5 58L87.79 68.79C87.7767 68.6167 87.7633 68.45 87.75 68.29C87.7433 68.1233 87.74 67.9667 87.74 67.82V57.67H89.44ZM96.6409 61.71C97.3809 61.71 98.0476 61.8333 98.6409 62.08C99.2343 62.3267 99.7409 62.6767 100.161 63.13C100.581 63.5833 100.901 64.1333 101.121 64.78C101.348 65.42 101.461 66.1367 101.461 66.93C101.461 67.73 101.348 68.45 101.121 69.09C100.901 69.73 100.581 70.2767 100.161 70.73C99.7409 71.1833 99.2343 71.5333 98.6409 71.78C98.0476 72.02 97.3809 72.14 96.6409 72.14C95.8943 72.14 95.2209 72.02 94.6209 71.78C94.0276 71.5333 93.5209 71.1833 93.1009 70.73C92.6809 70.2767 92.3576 69.73 92.1309 69.09C91.9109 68.45 91.8009 67.73 91.8009 66.93C91.8009 66.1367 91.9109 65.42 92.1309 64.78C92.3576 64.1333 92.6809 63.5833 93.1009 63.13C93.5209 62.6767 94.0276 62.3267 94.6209 62.08C95.2209 61.8333 95.8943 61.71 96.6409 61.71ZM96.6409 70.75C97.6409 70.75 98.3876 70.4167 98.8809 69.75C99.3743 69.0767 99.6209 68.14 99.6209 66.94C99.6209 65.7333 99.3743 64.7933 98.8809 64.12C98.3876 63.4467 97.6409 63.11 96.6409 63.11C96.1343 63.11 95.6909 63.1967 95.3109 63.37C94.9376 63.5433 94.6243 63.7933 94.3709 64.12C94.1243 64.4467 93.9376 64.85 93.8109 65.33C93.6909 65.8033 93.6309 66.34 93.6309 66.94C93.6309 68.14 93.8776 69.0767 94.3709 69.75C94.8709 70.4167 95.6276 70.75 96.6409 70.75ZM112.943 72H111.163V63.36H105.943V69.44C105.943 69.8667 106.046 70.1833 106.253 70.39C106.459 70.5967 106.726 70.7 107.053 70.7C107.239 70.7 107.399 70.6767 107.533 70.63C107.673 70.5767 107.793 70.52 107.893 70.46C107.993 70.4 108.076 70.3467 108.143 70.3C108.216 70.2467 108.279 70.22 108.333 70.22C108.426 70.22 108.509 70.2767 108.583 70.39L109.103 71.24C108.796 71.5267 108.426 71.7533 107.993 71.92C107.559 72.08 107.113 72.16 106.653 72.16C105.853 72.16 105.236 71.9367 104.803 71.49C104.376 71.0433 104.163 70.4 104.163 69.56V63.36H102.943C102.836 63.36 102.746 63.33 102.673 63.27C102.599 63.2033 102.563 63.1033 102.563 62.97V62.26L104.223 62.04L104.633 58.92C104.653 58.82 104.696 58.74 104.763 58.68C104.836 58.6133 104.929 58.58 105.043 58.58H105.943V62.07H112.943V72ZM113.383 58.62C113.383 58.7933 113.346 58.9567 113.273 59.11C113.206 59.2567 113.113 59.3867 112.993 59.5C112.879 59.6133 112.746 59.7033 112.593 59.77C112.439 59.8367 112.276 59.87 112.103 59.87C111.929 59.87 111.766 59.8367 111.613 59.77C111.466 59.7033 111.336 59.6133 111.223 59.5C111.109 59.3867 111.019 59.2567 110.953 59.11C110.886 58.9567 110.853 58.7933 110.853 58.62C110.853 58.4467 110.886 58.2833 110.953 58.13C111.019 57.97 111.109 57.8333 111.223 57.72C111.336 57.6 111.466 57.5067 111.613 57.44C111.766 57.3733 111.929 57.34 112.103 57.34C112.276 57.34 112.439 57.3733 112.593 57.44C112.746 57.5067 112.879 57.6 112.993 57.72C113.113 57.8333 113.206 57.97 113.273 58.13C113.346 58.2833 113.383 58.4467 113.383 58.62ZM116.547 72V63.39L115.427 63.26C115.28 63.2267 115.164 63.1767 115.077 63.11C114.99 63.0367 114.947 62.9333 114.947 62.8V62.07H116.547V61.51C116.547 60.89 116.644 60.3233 116.837 59.81C117.03 59.29 117.32 58.8433 117.707 58.47C118.094 58.0967 118.574 57.8067 119.147 57.6C119.727 57.3933 120.397 57.29 121.157 57.29C121.41 57.29 121.67 57.3067 121.937 57.34C122.204 57.3733 122.434 57.4233 122.627 57.49L122.557 58.42C122.55 58.4867 122.524 58.5333 122.477 58.56C122.437 58.5867 122.38 58.6033 122.307 58.61C122.234 58.6167 122.14 58.62 122.027 58.62C121.92 58.6133 121.797 58.61 121.657 58.61C120.47 58.61 119.61 58.8567 119.077 59.35C118.544 59.8367 118.277 60.5733 118.277 61.56V62.07H124.397V72H122.607V63.36H118.327V72H116.547ZM134.362 63.67C134.309 63.7433 134.256 63.8 134.202 63.84C134.149 63.88 134.076 63.9 133.982 63.9C133.882 63.9 133.772 63.86 133.652 63.78C133.532 63.6933 133.382 63.6 133.202 63.5C133.029 63.4 132.812 63.31 132.552 63.23C132.299 63.1433 131.986 63.1 131.612 63.1C131.112 63.1 130.672 63.19 130.292 63.37C129.912 63.5433 129.592 63.7967 129.332 64.13C129.079 64.4633 128.886 64.8667 128.752 65.34C128.626 65.8133 128.562 66.3433 128.562 66.93C128.562 67.5433 128.632 68.09 128.772 68.57C128.912 69.0433 129.109 69.4433 129.362 69.77C129.622 70.09 129.932 70.3367 130.292 70.51C130.659 70.6767 131.069 70.76 131.522 70.76C131.956 70.76 132.312 70.71 132.592 70.61C132.872 70.5033 133.102 70.3867 133.282 70.26C133.469 70.1333 133.622 70.02 133.742 69.92C133.869 69.8133 133.992 69.76 134.112 69.76C134.259 69.76 134.372 69.8167 134.452 69.93L134.952 70.58C134.732 70.8533 134.482 71.0867 134.202 71.28C133.922 71.4733 133.619 71.6367 133.292 71.77C132.972 71.8967 132.636 71.99 132.282 72.05C131.929 72.11 131.569 72.14 131.202 72.14C130.569 72.14 129.979 72.0233 129.432 71.79C128.892 71.5567 128.422 71.22 128.022 70.78C127.622 70.3333 127.309 69.7867 127.082 69.14C126.856 68.4933 126.742 67.7567 126.742 66.93C126.742 66.1767 126.846 65.48 127.052 64.84C127.266 64.2 127.572 63.65 127.972 63.19C128.379 62.7233 128.876 62.36 129.462 62.1C130.056 61.84 130.736 61.71 131.502 61.71C132.216 61.71 132.842 61.8267 133.382 62.06C133.929 62.2867 134.412 62.61 134.832 63.03L134.362 63.67ZM142.353 67.44C141.533 67.4667 140.833 67.5333 140.253 67.64C139.68 67.74 139.21 67.8733 138.843 68.04C138.483 68.2067 138.22 68.4033 138.053 68.63C137.893 68.8567 137.813 69.11 137.813 69.39C137.813 69.6567 137.856 69.8867 137.943 70.08C138.03 70.2733 138.146 70.4333 138.293 70.56C138.446 70.68 138.623 70.77 138.823 70.83C139.03 70.8833 139.25 70.91 139.483 70.91C139.796 70.91 140.083 70.88 140.343 70.82C140.603 70.7533 140.846 70.66 141.073 70.54C141.306 70.42 141.526 70.2767 141.733 70.11C141.946 69.9433 142.153 69.7533 142.353 69.54V67.44ZM136.603 63.3C137.163 62.76 137.766 62.3567 138.413 62.09C139.06 61.8233 139.776 61.69 140.563 61.69C141.13 61.69 141.633 61.7833 142.073 61.97C142.513 62.1567 142.883 62.4167 143.183 62.75C143.483 63.0833 143.71 63.4867 143.863 63.96C144.016 64.4333 144.093 64.9533 144.093 65.52V72H143.303C143.13 72 142.996 71.9733 142.903 71.92C142.81 71.86 142.736 71.7467 142.683 71.58L142.483 70.62C142.216 70.8667 141.956 71.0867 141.703 71.28C141.45 71.4667 141.183 71.6267 140.903 71.76C140.623 71.8867 140.323 71.9833 140.003 72.05C139.69 72.1233 139.34 72.16 138.953 72.16C138.56 72.16 138.19 72.1067 137.843 72C137.496 71.8867 137.193 71.72 136.933 71.5C136.68 71.28 136.476 71.0033 136.323 70.67C136.176 70.33 136.103 69.93 136.103 69.47C136.103 69.07 136.213 68.6867 136.433 68.32C136.653 67.9467 137.01 67.6167 137.503 67.33C137.996 67.0433 138.64 66.81 139.433 66.63C140.226 66.4433 141.2 66.3367 142.353 66.31V65.52C142.353 64.7333 142.183 64.14 141.843 63.74C141.503 63.3333 141.006 63.13 140.353 63.13C139.913 63.13 139.543 63.1867 139.243 63.3C138.95 63.4067 138.693 63.53 138.473 63.67C138.26 63.8033 138.073 63.9267 137.913 64.04C137.76 64.1467 137.606 64.2 137.453 64.2C137.333 64.2 137.23 64.17 137.143 64.11C137.056 64.0433 136.983 63.9633 136.923 63.87L136.603 63.3ZM156.068 72H154.288V63.36H149.068V69.44C149.068 69.8667 149.171 70.1833 149.378 70.39C149.584 70.5967 149.851 70.7 150.178 70.7C150.364 70.7 150.524 70.6767 150.658 70.63C150.798 70.5767 150.918 70.52 151.018 70.46C151.118 70.4 151.201 70.3467 151.268 70.3C151.341 70.2467 151.404 70.22 151.458 70.22C151.551 70.22 151.634 70.2767 151.708 70.39L152.228 71.24C151.921 71.5267 151.551 71.7533 151.118 71.92C150.684 72.08 150.238 72.16 149.778 72.16C148.978 72.16 148.361 71.9367 147.928 71.49C147.501 71.0433 147.288 70.4 147.288 69.56V63.36H146.068C145.961 63.36 145.871 63.33 145.798 63.27C145.724 63.2033 145.688 63.1033 145.688 62.97V62.26L147.348 62.04L147.758 58.92C147.778 58.82 147.821 58.74 147.888 58.68C147.961 58.6133 148.054 58.58 148.168 58.58H149.068V62.07H156.068V72ZM156.508 58.62C156.508 58.7933 156.471 58.9567 156.398 59.11C156.331 59.2567 156.238 59.3867 156.118 59.5C156.004 59.6133 155.871 59.7033 155.718 59.77C155.564 59.8367 155.401 59.87 155.228 59.87C155.054 59.87 154.891 59.8367 154.738 59.77C154.591 59.7033 154.461 59.6133 154.348 59.5C154.234 59.3867 154.144 59.2567 154.078 59.11C154.011 58.9567 153.978 58.7933 153.978 58.62C153.978 58.4467 154.011 58.2833 154.078 58.13C154.144 57.97 154.234 57.8333 154.348 57.72C154.461 57.6 154.591 57.5067 154.738 57.44C154.891 57.3733 155.054 57.34 155.228 57.34C155.401 57.34 155.564 57.3733 155.718 57.44C155.871 57.5067 156.004 57.6 156.118 57.72C156.238 57.8333 156.331 57.97 156.398 58.13C156.471 58.2833 156.508 58.4467 156.508 58.62ZM163.262 61.71C164.002 61.71 164.669 61.8333 165.262 62.08C165.855 62.3267 166.362 62.6767 166.782 63.13C167.202 63.5833 167.522 64.1333 167.742 64.78C167.969 65.42 168.082 66.1367 168.082 66.93C168.082 67.73 167.969 68.45 167.742 69.09C167.522 69.73 167.202 70.2767 166.782 70.73C166.362 71.1833 165.855 71.5333 165.262 71.78C164.669 72.02 164.002 72.14 163.262 72.14C162.515 72.14 161.842 72.02 161.242 71.78C160.649 71.5333 160.142 71.1833 159.722 70.73C159.302 70.2767 158.979 69.73 158.752 69.09C158.532 68.45 158.422 67.73 158.422 66.93C158.422 66.1367 158.532 65.42 158.752 64.78C158.979 64.1333 159.302 63.5833 159.722 63.13C160.142 62.6767 160.649 62.3267 161.242 62.08C161.842 61.8333 162.515 61.71 163.262 61.71ZM163.262 70.75C164.262 70.75 165.009 70.4167 165.502 69.75C165.995 69.0767 166.242 68.14 166.242 66.94C166.242 65.7333 165.995 64.7933 165.502 64.12C165.009 63.4467 164.262 63.11 163.262 63.11C162.755 63.11 162.312 63.1967 161.932 63.37C161.559 63.5433 161.245 63.7933 160.992 64.12C160.745 64.4467 160.559 64.85 160.432 65.33C160.312 65.8033 160.252 66.34 160.252 66.94C160.252 68.14 160.499 69.0767 160.992 69.75C161.492 70.4167 162.249 70.75 163.262 70.75ZM172.02 63.34C172.24 63.0933 172.473 62.87 172.72 62.67C172.966 62.47 173.226 62.3 173.5 62.16C173.78 62.0133 174.073 61.9033 174.38 61.83C174.693 61.75 175.03 61.71 175.39 61.71C175.943 61.71 176.43 61.8033 176.85 61.99C177.276 62.17 177.63 62.43 177.91 62.77C178.196 63.1033 178.413 63.5067 178.56 63.98C178.706 64.4533 178.78 64.9767 178.78 65.55V72H176.99V65.55C176.99 64.7833 176.813 64.19 176.46 63.77C176.113 63.3433 175.583 63.13 174.87 63.13C174.343 63.13 173.85 63.2567 173.39 63.51C172.936 63.7633 172.516 64.1067 172.13 64.54V72H170.34V61.87H171.41C171.663 61.87 171.82 61.9933 171.88 62.24L172.02 63.34ZM187.392 63.54C187.312 63.6867 187.189 63.76 187.022 63.76C186.922 63.76 186.809 63.7233 186.682 63.65C186.555 63.5767 186.399 63.4967 186.212 63.41C186.032 63.3167 185.815 63.2333 185.562 63.16C185.309 63.08 185.009 63.04 184.662 63.04C184.362 63.04 184.092 63.08 183.852 63.16C183.612 63.2333 183.405 63.3367 183.232 63.47C183.065 63.6033 182.935 63.76 182.842 63.94C182.755 64.1133 182.712 64.3033 182.712 64.51C182.712 64.77 182.785 64.9867 182.932 65.16C183.085 65.3333 183.285 65.4833 183.532 65.61C183.779 65.7367 184.059 65.85 184.372 65.95C184.685 66.0433 185.005 66.1467 185.332 66.26C185.665 66.3667 185.989 66.4867 186.302 66.62C186.615 66.7533 186.895 66.92 187.142 67.12C187.389 67.32 187.585 67.5667 187.732 67.86C187.885 68.1467 187.962 68.4933 187.962 68.9C187.962 69.3667 187.879 69.8 187.712 70.2C187.545 70.5933 187.299 70.9367 186.972 71.23C186.645 71.5167 186.245 71.7433 185.772 71.91C185.299 72.0767 184.752 72.16 184.132 72.16C183.425 72.16 182.785 72.0467 182.212 71.82C181.639 71.5867 181.152 71.29 180.752 70.93L181.172 70.25C181.225 70.1633 181.289 70.0967 181.362 70.05C181.435 70.0033 181.529 69.98 181.642 69.98C181.762 69.98 181.889 70.0267 182.022 70.12C182.155 70.2133 182.315 70.3167 182.502 70.43C182.695 70.5433 182.929 70.6467 183.202 70.74C183.475 70.8333 183.815 70.88 184.222 70.88C184.569 70.88 184.872 70.8367 185.132 70.75C185.392 70.6567 185.609 70.5333 185.782 70.38C185.955 70.2267 186.082 70.05 186.162 69.85C186.249 69.65 186.292 69.4367 186.292 69.21C186.292 68.93 186.215 68.7 186.062 68.52C185.915 68.3333 185.719 68.1767 185.472 68.05C185.225 67.9167 184.942 67.8033 184.622 67.71C184.309 67.61 183.985 67.5067 183.652 67.4C183.325 67.2933 183.002 67.1733 182.682 67.04C182.369 66.9 182.089 66.7267 181.842 66.52C181.595 66.3133 181.395 66.06 181.242 65.76C181.095 65.4533 181.022 65.0833 181.022 64.65C181.022 64.2633 181.102 63.8933 181.262 63.54C181.422 63.18 181.655 62.8667 181.962 62.6C182.269 62.3267 182.645 62.11 183.092 61.95C183.539 61.79 184.049 61.71 184.622 61.71C185.289 61.71 185.885 61.8167 186.412 62.03C186.945 62.2367 187.405 62.5233 187.792 62.89L187.392 63.54Z" fill="#575AC2"/>
<defs>
<filter id="filter0_d_21010_3324" x="0.569841" y="0.893862" width="228.86" height="135.86" filterUnits="userSpaceOnUse" color-interpolation-filters="sRGB">
<feFlood flood-opacity="0" result="BackgroundImageFix"/>
<feColorMatrix in="SourceAlpha" type="matrix" values="0 0 0 0 0 0 0 0 0 0 0 0 0 0 0 0 0 0 127 0" result="hardAlpha"/>
<feOffset dy="2.32402"/>
<feGaussianBlur stdDeviation="8.71508"/>
<feComposite in2="hardAlpha" operator="out"/>
<feColorMatrix type="matrix" values="0 0 0 0 0 0 0 0 0 0 0 0 0 0 0 0 0 0 0.02 0"/>
<feBlend mode="normal" in2="BackgroundImageFix" result="effect1_dropShadow_21010_3324"/>
<feBlend mode="normal" in="SourceGraphic" in2="effect1_dropShadow_21010_3324" result="shape"/>
</filter>
<filter id="filter1_bii_21010_3324" x="33.0492" y="45.0492" width="36.9519" height="36.9519" filterUnits="userSpaceOnUse" color-interpolation-filters="sRGB">
<feFlood flood-opacity="0" result="BackgroundImageFix"/>
<feGaussianBlur in="BackgroundImage" stdDeviation="1.97542"/>
<feComposite in2="SourceAlpha" operator="in" result="effect1_backgroundBlur_21010_3324"/>
<feBlend mode="normal" in="SourceGraphic" in2="effect1_backgroundBlur_21010_3324" result="shape"/>
<feColorMatrix in="SourceAlpha" type="matrix" values="0 0 0 0 0 0 0 0 0 0 0 0 0 0 0 0 0 0 127 0" result="hardAlpha"/>
<feOffset dx="2.32402" dy="2.32402"/>
<feGaussianBlur stdDeviation="7.26257"/>
<feComposite in2="hardAlpha" operator="arithmetic" k2="-1" k3="1"/>
<feColorMatrix type="matrix" values="0 0 0 0 1 0 0 0 0 1 0 0 0 0 1 0 0 0 0.49 0"/>
<feBlend mode="normal" in2="shape" result="effect2_innerShadow_21010_3324"/>
<feColorMatrix in="SourceAlpha" type="matrix" values="0 0 0 0 0 0 0 0 0 0 0 0 0 0 0 0 0 0 127 0" result="hardAlpha"/>
<feOffset dx="-3.48603" dy="-1.93668"/>
<feGaussianBlur stdDeviation="5.81005"/>
<feComposite in2="hardAlpha" operator="arithmetic" k2="-1" k3="1"/>
<feColorMatrix type="matrix" values="0 0 0 0 0.908333 0 0 0 0 0.283854 0 0 0 0 0.283854 0 0 0 0.57 0"/>
<feBlend mode="normal" in2="effect2_innerShadow_21010_3324" result="effect3_innerShadow_21010_3324"/>
</filter>
</defs>
</svg>
