<svg width="97" height="99" viewBox="0 0 97 99" fill="none" xmlns="http://www.w3.org/2000/svg">
<g filter="url(#filter0_d_20677_19818)">
<rect x="25" y="23.0486" width="48.0519" height="48.0519" rx="9.61039" fill="#EEEDFE"/>
<path d="M47.1529 37.426C47.3234 37.0046 47.6158 36.6438 47.9926 36.3898C48.3695 36.1357 48.8136 36 49.2681 36C49.7226 36 50.1667 36.1357 50.5436 36.3898C50.9204 36.6438 51.2128 37.0046 51.3833 37.426C53.0704 37.8899 54.5585 38.8949 55.6191 40.2865C56.6797 41.6781 57.2542 43.3795 57.2543 45.1292V50.4879L59.3443 53.623C59.459 53.7949 59.5248 53.9946 59.5348 54.2009C59.5449 54.4072 59.4987 54.6123 59.4012 54.7945C59.3038 54.9766 59.1587 55.1288 58.9816 55.235C58.8044 55.3411 58.6017 55.3971 58.3951 55.3971H53.2212C53.0839 56.3476 52.6087 57.2167 51.8826 57.8454C51.1566 58.474 50.2284 58.82 49.2681 58.82C48.3077 58.82 47.3795 58.474 46.6535 57.8454C45.9275 57.2167 45.4523 56.3476 45.3149 55.3971H40.1411C39.9345 55.3971 39.7318 55.3411 39.5546 55.235C39.3774 55.1288 39.2324 54.9766 39.1349 54.7945C39.0375 54.6123 38.9913 54.4072 39.0013 54.2009C39.0114 53.9946 39.0772 53.7949 39.1918 53.623L41.2819 50.4879V45.1292C41.2819 41.451 43.769 38.3524 47.1529 37.426ZM47.6549 55.3971C47.7727 55.731 47.9912 56.0201 48.2802 56.2246C48.5693 56.4291 48.9146 56.5389 49.2687 56.5389C49.6227 56.5389 49.9681 56.4291 50.2571 56.2246C50.5461 56.0201 50.7646 55.731 50.8824 55.3971H47.6537H47.6549ZM49.2681 39.4248C47.7552 39.4248 46.3043 40.0258 45.2345 41.0956C44.1647 42.1653 43.5637 43.6163 43.5637 45.1292V50.8336C43.5637 51.0589 43.497 51.2793 43.372 51.4668L42.2734 53.1153H56.2617L55.163 51.4668C55.0384 51.2791 54.9721 51.0588 54.9725 50.8336V45.1292C54.9725 43.6163 54.3715 42.1653 53.3017 41.0956C52.2319 40.0258 50.781 39.4248 49.2681 39.4248Z" fill="#284475"/>
</g>
<defs>
<filter id="filter0_d_20677_19818" x="0.373377" y="0.824558" width="97.3052" height="97.3052" filterUnits="userSpaceOnUse" color-interpolation-filters="sRGB">
<feFlood flood-opacity="0" result="BackgroundImageFix"/>
<feColorMatrix in="SourceAlpha" type="matrix" values="0 0 0 0 0 0 0 0 0 0 0 0 0 0 0 0 0 0 127 0" result="hardAlpha"/>
<feOffset dy="2.4026"/>
<feGaussianBlur stdDeviation="12.3133"/>
<feComposite in2="hardAlpha" operator="out"/>
<feColorMatrix type="matrix" values="0 0 0 0 0 0 0 0 0 0 0 0 0 0 0 0 0 0 0.05 0"/>
<feBlend mode="normal" in2="BackgroundImageFix" result="effect1_dropShadow_20677_19818"/>
<feBlend mode="normal" in="SourceGraphic" in2="effect1_dropShadow_20677_19818" result="shape"/>
</filter>
</defs>
</svg>
