<svg width="24" height="24" viewBox="0 0 24 24" fill="none" xmlns="http://www.w3.org/2000/svg">
<path d="M23.5889 12.6284C21.1497 11.8578 18.3028 11.7685 15.4659 12.3898C15.0171 11.2853 14.5131 10.204 13.9558 9.15007C16.7385 8.11898 19.1108 6.58668 20.6134 4.35872C22.4721 6.4209 23.6147 9.14 23.6147 12.1264C23.6147 12.2976 23.5972 12.4626 23.5889 12.6284ZM19.8568 3.59876C18.4763 5.76397 16.1693 7.2374 13.4456 8.22434C11.9897 5.6629 10.2236 3.29077 8.1871 1.16164C9.38242 0.745637 10.6583 0.507812 11.9946 0.507812C15.0282 0.507812 17.7861 1.68609 19.8568 3.59876ZM7.06924 1.61869C9.09734 3.677 10.8644 6.04673 12.3169 8.60005C8.61239 9.72411 4.31993 10.0688 0.566631 10.0797C1.23827 6.32484 3.7149 3.19825 7.06924 1.61869ZM0.374512 12.1279C0.374512 11.7933 0.396203 11.4648 0.424091 11.1371C4.36176 11.1348 8.8998 10.7684 12.8258 9.53818C13.3705 10.561 13.8643 11.6101 14.3055 12.6816C10.3267 13.8361 6.50605 16.4263 4.0209 20.5602C1.78054 18.4384 0.374512 15.4474 0.374512 12.1279ZM4.82734 21.2574C7.18312 17.2397 10.8675 14.7424 14.6851 13.6556C15.8029 16.6257 16.5094 19.7058 16.7271 22.7309C15.2795 23.3782 13.68 23.748 11.9946 23.748C9.28946 23.748 6.8043 22.8122 4.82734 21.2574ZM17.7838 22.1878C17.5738 19.211 16.9091 16.2352 15.8494 13.3744C18.5127 12.8174 21.1799 12.9297 23.4489 13.6858C23.4652 13.6917 23.4807 13.6873 23.4977 13.6917C23.0035 17.3252 20.8324 20.427 17.7838 22.1878Z" fill="#CECFD3"/>
</svg>
