<svg width="182" height="137" viewBox="0 0 182 137" fill="none" xmlns="http://www.w3.org/2000/svg">
<g filter="url(#filter0_d_21010_3280)">
<rect x="18" y="16" width="146" height="101" rx="17.4302" fill="#EDEDFD"/>
</g>
<rect x="38" y="54" width="29.0503" height="29.0503" rx="8.13407" fill="#E85F5F"/>
<g filter="url(#filter1_bii_21010_3280)">
<rect x="38" y="54" width="29.0503" height="29.0503" rx="8.13407" fill="#F0A12A" fill-opacity="0.156"/>
</g>
<path d="M49.5 73.1667H54.5M46.1667 76.5C46.1667 76.721 46.2545 76.933 46.4107 77.0893C46.567 77.2455 46.779 77.3333 47 77.3333H57C57.221 77.3333 57.433 77.2455 57.5892 77.0893C57.7455 76.933 57.8333 76.721 57.8333 76.5V60.6667L54.9167 62.75L52 60.6667L49.0833 62.75L46.1667 60.6667V76.5ZM49.5 69.8333H54.5H49.5ZM49.5 66.5H54.5H49.5Z" stroke="white" stroke-width="1.66667" stroke-linecap="round" stroke-linejoin="round"/>
<path d="M91.07 69.84C91.07 70.9133 90.9 71.9 90.56 72.8C90.22 73.6933 89.74 74.4633 89.12 75.11C88.5 75.7567 87.7533 76.26 86.88 76.62C86.0133 76.9733 85.0533 77.15 84 77.15C82.9467 77.15 81.9867 76.9733 81.12 76.62C80.2533 76.26 79.51 75.7567 78.89 75.11C78.27 74.4633 77.79 73.6933 77.45 72.8C77.11 71.9 76.94 70.9133 76.94 69.84C76.94 68.7667 77.11 67.7833 77.45 66.89C77.79 65.99 78.27 65.2167 78.89 64.57C79.51 63.9167 80.2533 63.41 81.12 63.05C81.9867 62.69 82.9467 62.51 84 62.51C85.0533 62.51 86.0133 62.69 86.88 63.05C87.7533 63.41 88.5 63.9167 89.12 64.57C89.74 65.2167 90.22 65.99 90.56 66.89C90.9 67.7833 91.07 68.7667 91.07 69.84ZM89.08 69.84C89.08 68.96 88.96 68.17 88.72 67.47C88.48 66.77 88.14 66.18 87.7 65.7C87.26 65.2133 86.7267 64.84 86.1 64.58C85.4733 64.32 84.7733 64.19 84 64.19C83.2333 64.19 82.5367 64.32 81.91 64.58C81.2833 64.84 80.7467 65.2133 80.3 65.7C79.86 66.18 79.52 66.77 79.28 67.47C79.04 68.17 78.92 68.96 78.92 69.84C78.92 70.72 79.04 71.51 79.28 72.21C79.52 72.9033 79.86 73.4933 80.3 73.98C80.7467 74.46 81.2833 74.83 81.91 75.09C82.5367 75.3433 83.2333 75.47 84 75.47C84.7733 75.47 85.4733 75.3433 86.1 75.09C86.7267 74.83 87.26 74.46 87.7 73.98C88.14 73.4933 88.48 72.9033 88.72 72.21C88.96 71.51 89.08 70.72 89.08 69.84ZM94.9203 68.9C95.2403 68.2067 95.6336 67.6667 96.1003 67.28C96.567 66.8867 97.137 66.69 97.8103 66.69C98.0236 66.69 98.227 66.7133 98.4203 66.76C98.6203 66.8067 98.797 66.88 98.9503 66.98L98.8203 68.31C98.7803 68.4767 98.6803 68.56 98.5203 68.56C98.427 68.56 98.2903 68.54 98.1103 68.5C97.9303 68.46 97.727 68.44 97.5003 68.44C97.1803 68.44 96.8936 68.4867 96.6403 68.58C96.3936 68.6733 96.1703 68.8133 95.9703 69C95.777 69.18 95.6003 69.4067 95.4403 69.68C95.287 69.9467 95.147 70.2533 95.0203 70.6V77H93.2303V66.87H94.2503C94.4436 66.87 94.577 66.9067 94.6503 66.98C94.7236 67.0533 94.7736 67.18 94.8003 67.36L94.9203 68.9ZM106.725 69.28C106.392 68.8333 106.032 68.5233 105.645 68.35C105.258 68.17 104.825 68.08 104.345 68.08C103.405 68.08 102.682 68.4167 102.175 69.09C101.668 69.7633 101.415 70.7233 101.415 71.97C101.415 72.63 101.472 73.1967 101.585 73.67C101.698 74.1367 101.865 74.5233 102.085 74.83C102.305 75.13 102.575 75.35 102.895 75.49C103.215 75.63 103.578 75.7 103.985 75.7C104.572 75.7 105.082 75.5667 105.515 75.3C105.955 75.0333 106.358 74.6567 106.725 74.17V69.28ZM108.505 62.27V77H107.445C107.192 77 107.032 76.8767 106.965 76.63L106.805 75.4C106.372 75.92 105.878 76.34 105.325 76.66C104.772 76.98 104.132 77.14 103.405 77.14C102.825 77.14 102.298 77.03 101.825 76.81C101.352 76.5833 100.948 76.2533 100.615 75.82C100.282 75.3867 100.025 74.8467 99.8448 74.2C99.6648 73.5533 99.5748 72.81 99.5748 71.97C99.5748 71.2233 99.6748 70.53 99.8748 69.89C100.075 69.2433 100.362 68.6833 100.735 68.21C101.108 67.7367 101.565 67.3667 102.105 67.1C102.652 66.8267 103.265 66.69 103.945 66.69C104.565 66.69 105.095 66.7967 105.535 67.01C105.982 67.2167 106.378 67.5067 106.725 67.88V62.27H108.505ZM118.096 70.83C118.096 70.4167 118.036 70.04 117.916 69.7C117.803 69.3533 117.633 69.0567 117.406 68.81C117.186 68.5567 116.916 68.3633 116.596 68.23C116.276 68.09 115.913 68.02 115.506 68.02C114.653 68.02 113.976 68.27 113.476 68.77C112.983 69.2633 112.676 69.95 112.556 70.83H118.096ZM119.536 75.58C119.316 75.8467 119.053 76.08 118.746 76.28C118.44 76.4733 118.11 76.6333 117.756 76.76C117.41 76.8867 117.05 76.98 116.676 77.04C116.303 77.1067 115.933 77.14 115.566 77.14C114.866 77.14 114.22 77.0233 113.626 76.79C113.04 76.55 112.53 76.2033 112.096 75.75C111.67 75.29 111.336 74.7233 111.096 74.05C110.856 73.3767 110.736 72.6033 110.736 71.73C110.736 71.0233 110.843 70.3633 111.056 69.75C111.276 69.1367 111.59 68.6067 111.996 68.16C112.403 67.7067 112.9 67.3533 113.486 67.1C114.073 66.84 114.733 66.71 115.466 66.71C116.073 66.71 116.633 66.8133 117.146 67.02C117.666 67.22 118.113 67.5133 118.486 67.9C118.866 68.28 119.163 68.7533 119.376 69.32C119.59 69.88 119.696 70.52 119.696 71.24C119.696 71.52 119.666 71.7067 119.606 71.8C119.546 71.8933 119.433 71.94 119.266 71.94H112.496C112.516 72.58 112.603 73.1367 112.756 73.61C112.916 74.0833 113.136 74.48 113.416 74.8C113.696 75.1133 114.03 75.35 114.416 75.51C114.803 75.6633 115.236 75.74 115.716 75.74C116.163 75.74 116.546 75.69 116.866 75.59C117.193 75.4833 117.473 75.37 117.706 75.25C117.94 75.13 118.133 75.02 118.286 74.92C118.446 74.8133 118.583 74.76 118.696 74.76C118.843 74.76 118.956 74.8167 119.036 74.93L119.536 75.58ZM123.573 68.9C123.893 68.2067 124.286 67.6667 124.753 67.28C125.219 66.8867 125.789 66.69 126.463 66.69C126.676 66.69 126.879 66.7133 127.073 66.76C127.273 66.8067 127.449 66.88 127.603 66.98L127.473 68.31C127.433 68.4767 127.333 68.56 127.173 68.56C127.079 68.56 126.943 68.54 126.763 68.5C126.583 68.46 126.379 68.44 126.153 68.44C125.833 68.44 125.546 68.4867 125.293 68.58C125.046 68.6733 124.823 68.8133 124.623 69C124.429 69.18 124.253 69.4067 124.093 69.68C123.939 69.9467 123.799 70.2533 123.673 70.6V77H121.883V66.87H122.903C123.096 66.87 123.229 66.9067 123.303 66.98C123.376 67.0533 123.426 67.18 123.453 67.36L123.573 68.9ZM135.009 68.54C134.929 68.6867 134.806 68.76 134.639 68.76C134.539 68.76 134.426 68.7233 134.299 68.65C134.173 68.5767 134.016 68.4967 133.829 68.41C133.649 68.3167 133.433 68.2333 133.179 68.16C132.926 68.08 132.626 68.04 132.279 68.04C131.979 68.04 131.709 68.08 131.469 68.16C131.229 68.2333 131.023 68.3367 130.849 68.47C130.683 68.6033 130.553 68.76 130.459 68.94C130.373 69.1133 130.329 69.3033 130.329 69.51C130.329 69.77 130.403 69.9867 130.549 70.16C130.703 70.3333 130.903 70.4833 131.149 70.61C131.396 70.7367 131.676 70.85 131.989 70.95C132.303 71.0433 132.623 71.1467 132.949 71.26C133.283 71.3667 133.606 71.4867 133.919 71.62C134.233 71.7533 134.513 71.92 134.759 72.12C135.006 72.32 135.203 72.5667 135.349 72.86C135.503 73.1467 135.579 73.4933 135.579 73.9C135.579 74.3667 135.496 74.8 135.329 75.2C135.163 75.5933 134.916 75.9367 134.589 76.23C134.263 76.5167 133.863 76.7433 133.389 76.91C132.916 77.0767 132.369 77.16 131.749 77.16C131.043 77.16 130.403 77.0467 129.829 76.82C129.256 76.5867 128.769 76.29 128.369 75.93L128.789 75.25C128.843 75.1633 128.906 75.0967 128.979 75.05C129.053 75.0033 129.146 74.98 129.259 74.98C129.379 74.98 129.506 75.0267 129.639 75.12C129.773 75.2133 129.933 75.3167 130.119 75.43C130.313 75.5433 130.546 75.6467 130.819 75.74C131.093 75.8333 131.433 75.88 131.839 75.88C132.186 75.88 132.489 75.8367 132.749 75.75C133.009 75.6567 133.226 75.5333 133.399 75.38C133.573 75.2267 133.699 75.05 133.779 74.85C133.866 74.65 133.909 74.4367 133.909 74.21C133.909 73.93 133.833 73.7 133.679 73.52C133.533 73.3333 133.336 73.1767 133.089 73.05C132.843 72.9167 132.559 72.8033 132.239 72.71C131.926 72.61 131.603 72.5067 131.269 72.4C130.943 72.2933 130.619 72.1733 130.299 72.04C129.986 71.9 129.706 71.7267 129.459 71.52C129.213 71.3133 129.013 71.06 128.859 70.76C128.713 70.4533 128.639 70.0833 128.639 69.65C128.639 69.2633 128.719 68.8933 128.879 68.54C129.039 68.18 129.273 67.8667 129.579 67.6C129.886 67.3267 130.263 67.11 130.709 66.95C131.156 66.79 131.666 66.71 132.239 66.71C132.906 66.71 133.503 66.8167 134.029 67.03C134.563 67.2367 135.023 67.5233 135.409 67.89L135.009 68.54Z" fill="#575AC2"/>
<defs>
<filter id="filter0_d_21010_3280" x="0.569841" y="0.893862" width="180.86" height="135.86" filterUnits="userSpaceOnUse" color-interpolation-filters="sRGB">
<feFlood flood-opacity="0" result="BackgroundImageFix"/>
<feColorMatrix in="SourceAlpha" type="matrix" values="0 0 0 0 0 0 0 0 0 0 0 0 0 0 0 0 0 0 127 0" result="hardAlpha"/>
<feOffset dy="2.32402"/>
<feGaussianBlur stdDeviation="8.71508"/>
<feComposite in2="hardAlpha" operator="out"/>
<feColorMatrix type="matrix" values="0 0 0 0 0 0 0 0 0 0 0 0 0 0 0 0 0 0 0.02 0"/>
<feBlend mode="normal" in2="BackgroundImageFix" result="effect1_dropShadow_21010_3280"/>
<feBlend mode="normal" in="SourceGraphic" in2="effect1_dropShadow_21010_3280" result="shape"/>
</filter>
<filter id="filter1_bii_21010_3280" x="34.0492" y="50.0492" width="36.9519" height="36.9519" filterUnits="userSpaceOnUse" color-interpolation-filters="sRGB">
<feFlood flood-opacity="0" result="BackgroundImageFix"/>
<feGaussianBlur in="BackgroundImage" stdDeviation="1.97542"/>
<feComposite in2="SourceAlpha" operator="in" result="effect1_backgroundBlur_21010_3280"/>
<feBlend mode="normal" in="SourceGraphic" in2="effect1_backgroundBlur_21010_3280" result="shape"/>
<feColorMatrix in="SourceAlpha" type="matrix" values="0 0 0 0 0 0 0 0 0 0 0 0 0 0 0 0 0 0 127 0" result="hardAlpha"/>
<feOffset dx="2.32402" dy="2.32402"/>
<feGaussianBlur stdDeviation="7.26257"/>
<feComposite in2="hardAlpha" operator="arithmetic" k2="-1" k3="1"/>
<feColorMatrix type="matrix" values="0 0 0 0 1 0 0 0 0 1 0 0 0 0 1 0 0 0 0.49 0"/>
<feBlend mode="normal" in2="shape" result="effect2_innerShadow_21010_3280"/>
<feColorMatrix in="SourceAlpha" type="matrix" values="0 0 0 0 0 0 0 0 0 0 0 0 0 0 0 0 0 0 127 0" result="hardAlpha"/>
<feOffset dx="-3.48603" dy="-1.93668"/>
<feGaussianBlur stdDeviation="5.81005"/>
<feComposite in2="hardAlpha" operator="arithmetic" k2="-1" k3="1"/>
<feColorMatrix type="matrix" values="0 0 0 0 0.908333 0 0 0 0 0.283854 0 0 0 0 0.283854 0 0 0 0.57 0"/>
<feBlend mode="normal" in2="effect2_innerShadow_21010_3280" result="effect3_innerShadow_21010_3280"/>
</filter>
</defs>
</svg>
