<svg width="182" height="137" viewBox="0 0 182 137" fill="none" xmlns="http://www.w3.org/2000/svg">
<g filter="url(#filter0_d_21010_3290)">
<rect x="18" y="16" width="146" height="101" rx="17.4302" fill="#EDEDFD"/>
</g>
<rect x="32" y="57" width="29.0503" height="29.0503" rx="8.13407" fill="#2264D1"/>
<g filter="url(#filter1_bii_21010_3290)">
<rect x="32" y="57" width="29.0503" height="29.0503" rx="8.13407" fill="#76A9FF"/>
</g>
<path d="M53 74V66C53 64.9 52.1 64 51 64H37C35.9 64 35 64.9 35 66V74C35 75.1 35.9 76 37 76H51C52.1 76 53 75.1 53 74ZM51 74H37V66H51V74ZM44 67C42.34 67 41 68.34 41 70C41 71.66 42.34 73 44 73C45.66 73 47 71.66 47 70C47 68.34 45.66 67 44 67ZM57 67V78C57 79.1 56.1 80 55 80H38V78H55V67H57Z" fill="white"/>
<path d="M78.06 73.1C78.6133 73.1 79.1 73.0267 79.52 72.88C79.9467 72.7333 80.3033 72.53 80.59 72.27C80.8833 72.0033 81.1033 71.6867 81.25 71.32C81.3967 70.9533 81.47 70.55 81.47 70.11C81.47 69.1967 81.1867 68.4833 80.62 67.97C80.06 67.4567 79.2067 67.2 78.06 67.2H75.76V73.1H78.06ZM78.06 65.67C78.9667 65.67 79.7533 65.7767 80.42 65.99C81.0933 66.1967 81.65 66.4933 82.09 66.88C82.53 67.2667 82.8567 67.7333 83.07 68.28C83.29 68.8267 83.4 69.4367 83.4 70.11C83.4 70.7767 83.2833 71.3867 83.05 71.94C82.8167 72.4933 82.4733 72.97 82.02 73.37C81.5733 73.77 81.0167 74.0833 80.35 74.31C79.69 74.53 78.9267 74.64 78.06 74.64H75.76V80H73.83V65.67H78.06ZM90.5992 75.44C89.7792 75.4667 89.0792 75.5333 88.4992 75.64C87.9259 75.74 87.4559 75.8733 87.0892 76.04C86.7292 76.2067 86.4659 76.4033 86.2992 76.63C86.1392 76.8567 86.0592 77.11 86.0592 77.39C86.0592 77.6567 86.1026 77.8867 86.1892 78.08C86.2759 78.2733 86.3926 78.4333 86.5392 78.56C86.6926 78.68 86.8692 78.77 87.0692 78.83C87.2759 78.8833 87.4959 78.91 87.7292 78.91C88.0426 78.91 88.3292 78.88 88.5892 78.82C88.8492 78.7533 89.0926 78.66 89.3192 78.54C89.5526 78.42 89.7726 78.2767 89.9792 78.11C90.1926 77.9433 90.3992 77.7533 90.5992 77.54V75.44ZM84.8492 71.3C85.4092 70.76 86.0126 70.3567 86.6592 70.09C87.3059 69.8233 88.0226 69.69 88.8092 69.69C89.3759 69.69 89.8792 69.7833 90.3192 69.97C90.7592 70.1567 91.1292 70.4167 91.4292 70.75C91.7292 71.0833 91.9559 71.4867 92.1092 71.96C92.2626 72.4333 92.3392 72.9533 92.3392 73.52V80H91.5492C91.3759 80 91.2426 79.9733 91.1492 79.92C91.0559 79.86 90.9826 79.7467 90.9292 79.58L90.7292 78.62C90.4626 78.8667 90.2026 79.0867 89.9492 79.28C89.6959 79.4667 89.4292 79.6267 89.1492 79.76C88.8692 79.8867 88.5692 79.9833 88.2492 80.05C87.9359 80.1233 87.5859 80.16 87.1992 80.16C86.8059 80.16 86.4359 80.1067 86.0892 80C85.7426 79.8867 85.4392 79.72 85.1792 79.5C84.9259 79.28 84.7226 79.0033 84.5692 78.67C84.4226 78.33 84.3492 77.93 84.3492 77.47C84.3492 77.07 84.4592 76.6867 84.6792 76.32C84.8992 75.9467 85.2559 75.6167 85.7492 75.33C86.2426 75.0433 86.8859 74.81 87.6792 74.63C88.4726 74.4433 89.4459 74.3367 90.5992 74.31V73.52C90.5992 72.7333 90.4292 72.14 90.0892 71.74C89.7492 71.3333 89.2526 71.13 88.5992 71.13C88.1592 71.13 87.7892 71.1867 87.4892 71.3C87.1959 71.4067 86.9392 71.53 86.7192 71.67C86.5059 71.8033 86.3192 71.9267 86.1592 72.04C86.0059 72.1467 85.8526 72.2 85.6992 72.2C85.5792 72.2 85.4759 72.17 85.3892 72.11C85.3026 72.0433 85.2292 71.9633 85.1692 71.87L84.8492 71.3ZM103.556 69.87L97.9063 82.99C97.8463 83.1233 97.7696 83.23 97.6763 83.31C97.5896 83.39 97.4529 83.43 97.2663 83.43H95.9463L97.7963 79.41L93.6163 69.87H95.1563C95.3096 69.87 95.4296 69.91 95.5163 69.99C95.6096 70.0633 95.6729 70.1467 95.7063 70.24L98.4163 76.62C98.5229 76.9 98.6129 77.1933 98.6862 77.5C98.7796 77.1867 98.8796 76.89 98.9863 76.61L101.616 70.24C101.656 70.1333 101.723 70.0467 101.816 69.98C101.916 69.9067 102.026 69.87 102.146 69.87H103.556ZM105.129 80V69.87H106.199C106.452 69.87 106.609 69.9933 106.669 70.24L106.799 71.28C107.172 70.82 107.592 70.4433 108.059 70.15C108.525 69.8567 109.065 69.71 109.679 69.71C110.359 69.71 110.909 69.9 111.329 70.28C111.755 70.66 112.062 71.1733 112.249 71.82C112.395 71.4533 112.582 71.1367 112.809 70.87C113.042 70.6033 113.302 70.3833 113.589 70.21C113.875 70.0367 114.179 69.91 114.499 69.83C114.825 69.75 115.155 69.71 115.489 69.71C116.022 69.71 116.495 69.7967 116.909 69.97C117.329 70.1367 117.682 70.3833 117.969 70.71C118.262 71.0367 118.485 71.44 118.639 71.92C118.792 72.3933 118.869 72.9367 118.869 73.55V80H117.079V73.55C117.079 72.7567 116.905 72.1567 116.559 71.75C116.212 71.3367 115.712 71.13 115.059 71.13C114.765 71.13 114.485 71.1833 114.219 71.29C113.959 71.39 113.729 71.54 113.529 71.74C113.329 71.94 113.169 72.1933 113.049 72.5C112.935 72.8 112.879 73.15 112.879 73.55V80H111.089V73.55C111.089 72.7367 110.925 72.13 110.599 71.73C110.272 71.33 109.795 71.13 109.169 71.13C108.729 71.13 108.322 71.25 107.949 71.49C107.575 71.7233 107.232 72.0433 106.919 72.45V80H105.129ZM128.354 73.83C128.354 73.4167 128.294 73.04 128.174 72.7C128.061 72.3533 127.891 72.0567 127.664 71.81C127.444 71.5567 127.174 71.3633 126.854 71.23C126.534 71.09 126.171 71.02 125.764 71.02C124.911 71.02 124.234 71.27 123.734 71.77C123.241 72.2633 122.934 72.95 122.814 73.83H128.354ZM129.794 78.58C129.574 78.8467 129.311 79.08 129.004 79.28C128.697 79.4733 128.367 79.6333 128.014 79.76C127.667 79.8867 127.307 79.98 126.934 80.04C126.561 80.1067 126.191 80.14 125.824 80.14C125.124 80.14 124.477 80.0233 123.884 79.79C123.297 79.55 122.787 79.2033 122.354 78.75C121.927 78.29 121.594 77.7233 121.354 77.05C121.114 76.3767 120.994 75.6033 120.994 74.73C120.994 74.0233 121.101 73.3633 121.314 72.75C121.534 72.1367 121.847 71.6067 122.254 71.16C122.661 70.7067 123.157 70.3533 123.744 70.1C124.331 69.84 124.991 69.71 125.724 69.71C126.331 69.71 126.891 69.8133 127.404 70.02C127.924 70.22 128.371 70.5133 128.744 70.9C129.124 71.28 129.421 71.7533 129.634 72.32C129.847 72.88 129.954 73.52 129.954 74.24C129.954 74.52 129.924 74.7067 129.864 74.8C129.804 74.8933 129.691 74.94 129.524 74.94H122.754C122.774 75.58 122.861 76.1367 123.014 76.61C123.174 77.0833 123.394 77.48 123.674 77.8C123.954 78.1133 124.287 78.35 124.674 78.51C125.061 78.6633 125.494 78.74 125.974 78.74C126.421 78.74 126.804 78.69 127.124 78.59C127.451 78.4833 127.731 78.37 127.964 78.25C128.197 78.13 128.391 78.02 128.544 77.92C128.704 77.8133 128.841 77.76 128.954 77.76C129.101 77.76 129.214 77.8167 129.294 77.93L129.794 78.58ZM133.82 71.34C134.04 71.0933 134.274 70.87 134.52 70.67C134.767 70.47 135.027 70.3 135.3 70.16C135.58 70.0133 135.874 69.9033 136.18 69.83C136.494 69.75 136.83 69.71 137.19 69.71C137.744 69.71 138.23 69.8033 138.65 69.99C139.077 70.17 139.43 70.43 139.71 70.77C139.997 71.1033 140.214 71.5067 140.36 71.98C140.507 72.4533 140.58 72.9767 140.58 73.55V80H138.79V73.55C138.79 72.7833 138.614 72.19 138.26 71.77C137.914 71.3433 137.384 71.13 136.67 71.13C136.144 71.13 135.65 71.2567 135.19 71.51C134.737 71.7633 134.317 72.1067 133.93 72.54V80H132.14V69.87H133.21C133.464 69.87 133.62 69.9933 133.68 70.24L133.82 71.34ZM146.266 80.16C145.466 80.16 144.849 79.9367 144.416 79.49C143.989 79.0433 143.776 78.4 143.776 77.56V71.36H142.556C142.449 71.36 142.359 71.33 142.286 71.27C142.213 71.2033 142.176 71.1033 142.176 70.97V70.26L143.836 70.05L144.246 66.92C144.266 66.82 144.309 66.74 144.376 66.68C144.449 66.6133 144.543 66.58 144.656 66.58H145.556V70.07H148.486V71.36H145.556V77.44C145.556 77.8667 145.659 78.1833 145.866 78.39C146.073 78.5967 146.339 78.7 146.666 78.7C146.853 78.7 147.013 78.6767 147.146 78.63C147.286 78.5767 147.406 78.52 147.506 78.46C147.606 78.4 147.689 78.3467 147.756 78.3C147.829 78.2467 147.893 78.22 147.946 78.22C148.039 78.22 148.123 78.2767 148.196 78.39L148.716 79.24C148.409 79.5267 148.039 79.7533 147.606 79.92C147.173 80.08 146.726 80.16 146.266 80.16ZM156.224 71.54C156.144 71.6867 156.021 71.76 155.854 71.76C155.754 71.76 155.641 71.7233 155.514 71.65C155.387 71.5767 155.231 71.4967 155.044 71.41C154.864 71.3167 154.647 71.2333 154.394 71.16C154.141 71.08 153.841 71.04 153.494 71.04C153.194 71.04 152.924 71.08 152.684 71.16C152.444 71.2333 152.237 71.3367 152.064 71.47C151.897 71.6033 151.767 71.76 151.674 71.94C151.587 72.1133 151.544 72.3033 151.544 72.51C151.544 72.77 151.617 72.9867 151.764 73.16C151.917 73.3333 152.117 73.4833 152.364 73.61C152.611 73.7367 152.891 73.85 153.204 73.95C153.517 74.0433 153.837 74.1467 154.164 74.26C154.497 74.3667 154.821 74.4867 155.134 74.62C155.447 74.7533 155.727 74.92 155.974 75.12C156.221 75.32 156.417 75.5667 156.564 75.86C156.717 76.1467 156.794 76.4933 156.794 76.9C156.794 77.3667 156.711 77.8 156.544 78.2C156.377 78.5933 156.131 78.9367 155.804 79.23C155.477 79.5167 155.077 79.7433 154.604 79.91C154.131 80.0767 153.584 80.16 152.964 80.16C152.257 80.16 151.617 80.0467 151.044 79.82C150.471 79.5867 149.984 79.29 149.584 78.93L150.004 78.25C150.057 78.1633 150.121 78.0967 150.194 78.05C150.267 78.0033 150.361 77.98 150.474 77.98C150.594 77.98 150.721 78.0267 150.854 78.12C150.987 78.2133 151.147 78.3167 151.334 78.43C151.527 78.5433 151.761 78.6467 152.034 78.74C152.307 78.8333 152.647 78.88 153.054 78.88C153.401 78.88 153.704 78.8367 153.964 78.75C154.224 78.6567 154.441 78.5333 154.614 78.38C154.787 78.2267 154.914 78.05 154.994 77.85C155.081 77.65 155.124 77.4367 155.124 77.21C155.124 76.93 155.047 76.7 154.894 76.52C154.747 76.3333 154.551 76.1767 154.304 76.05C154.057 75.9167 153.774 75.8033 153.454 75.71C153.141 75.61 152.817 75.5067 152.484 75.4C152.157 75.2933 151.834 75.1733 151.514 75.04C151.201 74.9 150.921 74.7267 150.674 74.52C150.427 74.3133 150.227 74.06 150.074 73.76C149.927 73.4533 149.854 73.0833 149.854 72.65C149.854 72.2633 149.934 71.8933 150.094 71.54C150.254 71.18 150.487 70.8667 150.794 70.6C151.101 70.3267 151.477 70.11 151.924 69.95C152.371 69.79 152.881 69.71 153.454 69.71C154.121 69.71 154.717 69.8167 155.244 70.03C155.777 70.2367 156.237 70.5233 156.624 70.89L156.224 71.54Z" fill="#575AC2"/>
<defs>
<filter id="filter0_d_21010_3290" x="0.569841" y="0.893862" width="180.86" height="135.86" filterUnits="userSpaceOnUse" color-interpolation-filters="sRGB">
<feFlood flood-opacity="0" result="BackgroundImageFix"/>
<feColorMatrix in="SourceAlpha" type="matrix" values="0 0 0 0 0 0 0 0 0 0 0 0 0 0 0 0 0 0 127 0" result="hardAlpha"/>
<feOffset dy="2.32402"/>
<feGaussianBlur stdDeviation="8.71508"/>
<feComposite in2="hardAlpha" operator="out"/>
<feColorMatrix type="matrix" values="0 0 0 0 0 0 0 0 0 0 0 0 0 0 0 0 0 0 0.02 0"/>
<feBlend mode="normal" in2="BackgroundImageFix" result="effect1_dropShadow_21010_3290"/>
<feBlend mode="normal" in="SourceGraphic" in2="effect1_dropShadow_21010_3290" result="shape"/>
</filter>
<filter id="filter1_bii_21010_3290" x="28.0492" y="53.0492" width="36.9519" height="36.9519" filterUnits="userSpaceOnUse" color-interpolation-filters="sRGB">
<feFlood flood-opacity="0" result="BackgroundImageFix"/>
<feGaussianBlur in="BackgroundImage" stdDeviation="1.97542"/>
<feComposite in2="SourceAlpha" operator="in" result="effect1_backgroundBlur_21010_3290"/>
<feBlend mode="normal" in="SourceGraphic" in2="effect1_backgroundBlur_21010_3290" result="shape"/>
<feColorMatrix in="SourceAlpha" type="matrix" values="0 0 0 0 0 0 0 0 0 0 0 0 0 0 0 0 0 0 127 0" result="hardAlpha"/>
<feOffset dx="2.32402" dy="2.32402"/>
<feGaussianBlur stdDeviation="7.26257"/>
<feComposite in2="hardAlpha" operator="arithmetic" k2="-1" k3="1"/>
<feColorMatrix type="matrix" values="0 0 0 0 1 0 0 0 0 1 0 0 0 0 1 0 0 0 0.49 0"/>
<feBlend mode="normal" in2="shape" result="effect2_innerShadow_21010_3290"/>
<feColorMatrix in="SourceAlpha" type="matrix" values="0 0 0 0 0 0 0 0 0 0 0 0 0 0 0 0 0 0 127 0" result="hardAlpha"/>
<feOffset dx="-3.48603" dy="-1.93668"/>
<feGaussianBlur stdDeviation="5.81005"/>
<feComposite in2="hardAlpha" operator="arithmetic" k2="-1" k3="1"/>
<feColorMatrix type="matrix" values="0 0 0 0 0.0578125 0 0 0 0 0.562535 0 0 0 0 0.770833 0 0 0 1 0"/>
<feBlend mode="normal" in2="effect2_innerShadow_21010_3290" result="effect3_innerShadow_21010_3290"/>
</filter>
</defs>
</svg>
