<svg width="24" height="24" viewBox="0 0 24 24" fill="none" xmlns="http://www.w3.org/2000/svg">
<path d="M11.9946 0.0107422C5.57715 0.0107422 0.374512 5.21338 0.374512 11.6308C0.374512 18.0483 5.57715 23.251 11.9946 23.251C18.4121 23.251 23.6147 18.0483 23.6147 11.6308C23.6147 5.21338 18.4121 0.0107422 11.9946 0.0107422ZM13.0637 15.1496C12.2048 15.1496 11.3967 14.6753 11.1189 14.1366C11.1189 14.1366 10.6572 16.0085 10.559 16.3697C10.3942 16.9803 10.0762 17.5898 9.78152 18.0726C9.36108 18.6219 8.8762 18.2142 8.8181 17.7134C8.79909 17.1557 8.81916 16.4954 8.95754 15.8944C9.11072 15.2352 9.98117 11.4671 9.98117 11.4671C9.98117 11.4671 9.72658 10.9484 9.72658 10.1815C9.72658 8.97724 10.4101 8.07826 11.2615 8.07826C11.9851 8.07826 12.3348 8.63392 12.3348 9.29838C12.3348 10.041 11.871 11.1523 11.6323 12.1812C11.4326 13.0432 12.0559 13.7457 12.8883 13.7457C14.3958 13.7457 15.412 11.7682 15.412 9.4262C15.412 7.64515 14.2373 6.31307 12.1003 6.31307C9.68644 6.31307 8.18217 8.15115 8.18217 10.2037C8.18217 10.9115 8.38605 11.4111 8.70718 11.7967C8.85402 11.9742 8.87515 12.046 8.82127 12.2499C8.78324 12.3999 8.69556 12.7591 8.65965 12.9017C8.60683 13.1077 8.44309 13.1805 8.26139 13.1045C7.14903 12.6407 6.63141 11.3974 6.63141 10.0009C6.63141 7.69269 8.53816 4.92499 12.3189 4.92499C15.3571 4.92499 17.3568 7.16978 17.3568 9.57937C17.3578 12.7686 15.6222 15.1496 13.0637 15.1496Z" fill="#CECFD3"/>
</svg>
