<svg width="182" height="137" viewBox="0 0 182 137" fill="none" xmlns="http://www.w3.org/2000/svg">
<g filter="url(#filter0_d_21010_3264)">
<rect x="18" y="16" width="146" height="101" rx="17.4302" fill="#EDEDFD"/>
</g>
<rect x="42.592" y="51.592" width="29.0503" height="29.0503" rx="8.13407" fill="#F0A12A"/>
<g filter="url(#filter1_bii_21010_3264)">
<rect x="42.592" y="51.592" width="29.0503" height="29.0503" rx="8.13407" fill="#F0A12A" fill-opacity="0.156"/>
</g>
<path fill-rule="evenodd" clip-rule="evenodd" d="M61.3334 64.125C61.3334 65.1417 60.9295 66.1167 60.2106 66.8356C59.4917 67.5545 58.5167 67.9583 57.5 67.9583C56.4834 67.9583 55.5083 67.5545 54.7894 66.8356C54.0706 66.1167 53.6667 65.1417 53.6667 64.125C53.6667 63.1083 54.0706 62.1333 54.7894 61.4144C55.5083 60.6955 56.4834 60.2917 57.5 60.2917C58.5167 60.2917 59.4917 60.6955 60.2106 61.4144C60.9295 62.1333 61.3334 63.1083 61.3334 64.125V64.125ZM59.4167 64.125C59.4167 64.6333 59.2148 65.1208 58.8553 65.4803C58.4959 65.8397 58.0084 66.0417 57.5 66.0417C56.9917 66.0417 56.5042 65.8397 56.1447 65.4803C55.7853 65.1208 55.5834 64.6333 55.5834 64.125C55.5834 63.6167 55.7853 63.1291 56.1447 62.7697C56.5042 62.4103 56.9917 62.2083 57.5 62.2083C58.0084 62.2083 58.4959 62.4103 58.8553 62.7697C59.2148 63.1291 59.4167 63.6167 59.4167 64.125V64.125Z" fill="white"/>
<path fill-rule="evenodd" clip-rule="evenodd" d="M57.5 56.4583C51.6781 56.4583 46.9583 61.1781 46.9583 67C46.9583 72.8219 51.6781 77.5417 57.5 77.5417C63.3219 77.5417 68.0417 72.8219 68.0417 67C68.0417 61.1781 63.3219 56.4583 57.5 56.4583ZM48.875 67C48.875 69.0029 49.5583 70.8467 50.7035 72.3111C51.5078 71.2549 52.5453 70.399 53.7351 69.8101C54.9249 69.2213 56.2348 68.9155 57.5623 68.9167C58.8727 68.9154 60.166 69.2133 61.3438 69.7876C62.5216 70.3619 63.5528 71.1974 64.3588 72.2306C65.1891 71.1415 65.7482 69.8704 65.9898 68.5224C66.2313 67.1744 66.1484 65.7882 65.7479 64.4786C65.3474 63.169 64.6408 61.9736 63.6865 60.9913C62.7323 60.009 61.5578 59.268 60.2604 58.8297C58.9629 58.3914 57.5797 58.2684 56.2253 58.4708C54.8708 58.6732 53.5841 59.1952 52.4714 59.9937C51.3588 60.7921 50.4522 61.844 49.8269 63.0624C49.2015 64.2807 48.8752 65.6305 48.875 67V67ZM57.5 75.625C55.52 75.628 53.5998 74.9468 52.0643 73.6968C52.6824 72.812 53.505 72.0896 54.4623 71.5911C55.4195 71.0925 56.483 70.8326 57.5623 70.8333C58.6281 70.8325 59.6788 71.0859 60.627 71.5726C61.5752 72.0593 62.3936 72.7652 63.0143 73.6317C61.4668 74.9222 59.515 75.6278 57.5 75.625V75.625Z" fill="white"/>
<path d="M89.06 68.1C89.6133 68.1 90.1 68.0267 90.52 67.88C90.9467 67.7333 91.3033 67.53 91.59 67.27C91.8833 67.0033 92.1033 66.6867 92.25 66.32C92.3967 65.9533 92.47 65.55 92.47 65.11C92.47 64.1967 92.1867 63.4833 91.62 62.97C91.06 62.4567 90.2067 62.2 89.06 62.2H86.76V68.1H89.06ZM89.06 60.67C89.9667 60.67 90.7533 60.7767 91.42 60.99C92.0933 61.1967 92.65 61.4933 93.09 61.88C93.53 62.2667 93.8567 62.7333 94.07 63.28C94.29 63.8267 94.4 64.4367 94.4 65.11C94.4 65.7767 94.2833 66.3867 94.05 66.94C93.8167 67.4933 93.4733 67.97 93.02 68.37C92.5733 68.77 92.0167 69.0833 91.35 69.31C90.69 69.53 89.9267 69.64 89.06 69.64H86.76V75H84.83V60.67H89.06ZM97.9164 66.9C98.2364 66.2067 98.6297 65.6667 99.0964 65.28C99.5631 64.8867 100.133 64.69 100.806 64.69C101.02 64.69 101.223 64.7133 101.416 64.76C101.616 64.8067 101.793 64.88 101.946 64.98L101.816 66.31C101.776 66.4767 101.676 66.56 101.516 66.56C101.423 66.56 101.286 66.54 101.106 66.5C100.926 66.46 100.723 66.44 100.496 66.44C100.176 66.44 99.8897 66.4867 99.6364 66.58C99.3897 66.6733 99.1664 66.8133 98.9664 67C98.7731 67.18 98.5964 67.4067 98.4364 67.68C98.2831 67.9467 98.1431 68.2533 98.0164 68.6V75H96.2264V64.87H97.2464C97.4397 64.87 97.5731 64.9067 97.6464 64.98C97.7197 65.0533 97.7697 65.18 97.7964 65.36L97.9164 66.9ZM107.371 64.71C108.111 64.71 108.778 64.8333 109.371 65.08C109.965 65.3267 110.471 65.6767 110.891 66.13C111.311 66.5833 111.631 67.1333 111.851 67.78C112.078 68.42 112.191 69.1367 112.191 69.93C112.191 70.73 112.078 71.45 111.851 72.09C111.631 72.73 111.311 73.2767 110.891 73.73C110.471 74.1833 109.965 74.5333 109.371 74.78C108.778 75.02 108.111 75.14 107.371 75.14C106.625 75.14 105.951 75.02 105.351 74.78C104.758 74.5333 104.251 74.1833 103.831 73.73C103.411 73.2767 103.088 72.73 102.861 72.09C102.641 71.45 102.531 70.73 102.531 69.93C102.531 69.1367 102.641 68.42 102.861 67.78C103.088 67.1333 103.411 66.5833 103.831 66.13C104.251 65.6767 104.758 65.3267 105.351 65.08C105.951 64.8333 106.625 64.71 107.371 64.71ZM107.371 73.75C108.371 73.75 109.118 73.4167 109.611 72.75C110.105 72.0767 110.351 71.14 110.351 69.94C110.351 68.7333 110.105 67.7933 109.611 67.12C109.118 66.4467 108.371 66.11 107.371 66.11C106.865 66.11 106.421 66.1967 106.041 66.37C105.668 66.5433 105.355 66.7933 105.101 67.12C104.855 67.4467 104.668 67.85 104.541 68.33C104.421 68.8033 104.361 69.34 104.361 69.94C104.361 71.14 104.608 72.0767 105.101 72.75C105.601 73.4167 106.358 73.75 107.371 73.75ZM114.914 75V66.39L113.794 66.26C113.648 66.2267 113.531 66.1767 113.444 66.11C113.358 66.0367 113.314 65.9333 113.314 65.8V65.07H114.914V64.51C114.914 63.89 115.011 63.3233 115.204 62.81C115.398 62.29 115.688 61.8433 116.074 61.47C116.461 61.0967 116.941 60.8067 117.514 60.6C118.094 60.3933 118.764 60.29 119.524 60.29C119.778 60.29 120.038 60.3067 120.304 60.34C120.571 60.3733 120.801 60.4233 120.994 60.49L120.924 61.42C120.918 61.4867 120.891 61.5333 120.844 61.56C120.804 61.5867 120.748 61.6033 120.674 61.61C120.601 61.6167 120.508 61.62 120.394 61.62C120.288 61.6133 120.164 61.61 120.024 61.61C118.838 61.61 117.978 61.8567 117.444 62.35C116.911 62.8367 116.644 63.5733 116.644 64.56V65.07H122.764V75H120.974V66.36H116.694V75H114.914ZM127.52 60.27V75H125.74V60.27H127.52ZM137.186 68.83C137.186 68.4167 137.126 68.04 137.006 67.7C136.893 67.3533 136.723 67.0567 136.496 66.81C136.276 66.5567 136.006 66.3633 135.686 66.23C135.366 66.09 135.003 66.02 134.596 66.02C133.743 66.02 133.066 66.27 132.566 66.77C132.073 67.2633 131.766 67.95 131.646 68.83H137.186ZM138.626 73.58C138.406 73.8467 138.143 74.08 137.836 74.28C137.529 74.4733 137.199 74.6333 136.846 74.76C136.499 74.8867 136.139 74.98 135.766 75.04C135.393 75.1067 135.023 75.14 134.656 75.14C133.956 75.14 133.309 75.0233 132.716 74.79C132.129 74.55 131.619 74.2033 131.186 73.75C130.759 73.29 130.426 72.7233 130.186 72.05C129.946 71.3767 129.826 70.6033 129.826 69.73C129.826 69.0233 129.933 68.3633 130.146 67.75C130.366 67.1367 130.679 66.6067 131.086 66.16C131.493 65.7067 131.989 65.3533 132.576 65.1C133.163 64.84 133.823 64.71 134.556 64.71C135.163 64.71 135.723 64.8133 136.236 65.02C136.756 65.22 137.203 65.5133 137.576 65.9C137.956 66.28 138.253 66.7533 138.466 67.32C138.679 67.88 138.786 68.52 138.786 69.24C138.786 69.52 138.756 69.7067 138.696 69.8C138.636 69.8933 138.523 69.94 138.356 69.94H131.586C131.606 70.58 131.693 71.1367 131.846 71.61C132.006 72.0833 132.226 72.48 132.506 72.8C132.786 73.1133 133.119 73.35 133.506 73.51C133.893 73.6633 134.326 73.74 134.806 73.74C135.253 73.74 135.636 73.69 135.956 73.59C136.283 73.4833 136.563 73.37 136.796 73.25C137.029 73.13 137.223 73.02 137.376 72.92C137.536 72.8133 137.673 72.76 137.786 72.76C137.933 72.76 138.046 72.8167 138.126 72.93L138.626 73.58Z" fill="#575AC2"/>
<defs>
<filter id="filter0_d_21010_3264" x="0.569841" y="0.893862" width="180.86" height="135.86" filterUnits="userSpaceOnUse" color-interpolation-filters="sRGB">
<feFlood flood-opacity="0" result="BackgroundImageFix"/>
<feColorMatrix in="SourceAlpha" type="matrix" values="0 0 0 0 0 0 0 0 0 0 0 0 0 0 0 0 0 0 127 0" result="hardAlpha"/>
<feOffset dy="2.32402"/>
<feGaussianBlur stdDeviation="8.71508"/>
<feComposite in2="hardAlpha" operator="out"/>
<feColorMatrix type="matrix" values="0 0 0 0 0 0 0 0 0 0 0 0 0 0 0 0 0 0 0.02 0"/>
<feBlend mode="normal" in2="BackgroundImageFix" result="effect1_dropShadow_21010_3264"/>
<feBlend mode="normal" in="SourceGraphic" in2="effect1_dropShadow_21010_3264" result="shape"/>
</filter>
<filter id="filter1_bii_21010_3264" x="38.6412" y="47.6412" width="36.9519" height="36.9519" filterUnits="userSpaceOnUse" color-interpolation-filters="sRGB">
<feFlood flood-opacity="0" result="BackgroundImageFix"/>
<feGaussianBlur in="BackgroundImage" stdDeviation="1.97542"/>
<feComposite in2="SourceAlpha" operator="in" result="effect1_backgroundBlur_21010_3264"/>
<feBlend mode="normal" in="SourceGraphic" in2="effect1_backgroundBlur_21010_3264" result="shape"/>
<feColorMatrix in="SourceAlpha" type="matrix" values="0 0 0 0 0 0 0 0 0 0 0 0 0 0 0 0 0 0 127 0" result="hardAlpha"/>
<feOffset dx="2.32402" dy="2.32402"/>
<feGaussianBlur stdDeviation="7.26257"/>
<feComposite in2="hardAlpha" operator="arithmetic" k2="-1" k3="1"/>
<feColorMatrix type="matrix" values="0 0 0 0 1 0 0 0 0 1 0 0 0 0 1 0 0 0 0.4 0"/>
<feBlend mode="normal" in2="shape" result="effect2_innerShadow_21010_3264"/>
<feColorMatrix in="SourceAlpha" type="matrix" values="0 0 0 0 0 0 0 0 0 0 0 0 0 0 0 0 0 0 127 0" result="hardAlpha"/>
<feOffset dx="-3.48603" dy="-1.93668"/>
<feGaussianBlur stdDeviation="5.81005"/>
<feComposite in2="hardAlpha" operator="arithmetic" k2="-1" k3="1"/>
<feColorMatrix type="matrix" values="0 0 0 0 0.795833 0 0 0 0 0.49815 0 0 0 0 0.0497396 0 0 0 0.43 0"/>
<feBlend mode="normal" in2="effect2_innerShadow_21010_3264" result="effect3_innerShadow_21010_3264"/>
</filter>
</defs>
</svg>
