<svg width="182" height="137" viewBox="0 0 182 137" fill="none" xmlns="http://www.w3.org/2000/svg">
<g filter="url(#filter0_d_21010_3312)">
<rect x="18" y="16" width="146" height="101" rx="17.4302" fill="#EDEDFD"/>
</g>
<rect x="29" y="52" width="29.0503" height="29.0503" rx="8.13407" fill="#FCDDEC"/>
<g filter="url(#filter1_bii_21010_3312)">
<rect x="29" y="52" width="29.0503" height="29.0503" rx="8.13407" fill="#EF5DA8"/>
</g>
<path d="M43.0496 73.3326C43.0608 73.3344 43.0702 73.3357 43.0774 73.3365L43.086 73.3375H43.0946H54.5304H54.539L54.5476 73.3365C54.5548 73.3357 54.5642 73.3344 54.5754 73.3326L54.5909 73.3298L54.7132 73.3062L54.7125 73.1817C54.7102 72.7668 54.4598 71.6319 53.585 70.6113C52.7591 69.6478 51.3236 68.725 48.8125 68.725C46.3014 68.725 44.8659 69.6478 44.04 70.6113C43.1652 71.6319 42.9148 72.7668 42.9125 73.1817L42.9118 73.3062L43.0341 73.3298L43.0496 73.3326ZM43.0496 73.3326L43.0742 73.1846M43.0496 73.3326L43.0496 73.3326L43.0742 73.1846M43.0742 73.1846L43.0625 73.1825L54.5508 73.1846C54.5423 73.186 54.5354 73.1869 54.5304 73.1875H43.0946C43.0896 73.1869 43.0827 73.186 43.0742 73.1846ZM55.85 73.1875C55.85 73.5206 55.7671 73.7605 55.6506 73.9353C55.5334 74.1111 55.3761 74.2302 55.2142 74.3111C55.0517 74.3924 54.8874 74.4338 54.7624 74.4546C54.7003 74.4649 54.6489 74.4701 54.6136 74.4726C54.5959 74.4738 54.5824 74.4744 54.5736 74.4747L54.5642 74.475L54.5625 74.475L54.5623 74.475H54.5622H43.0628H43.0627L43.0626 74.475H43.0625L43.0608 74.475L43.0514 74.4747C43.0426 74.4744 43.0291 74.4738 43.0114 74.4726C42.9761 74.4701 42.9247 74.4649 42.8626 74.4546C42.7376 74.4338 42.5733 74.3924 42.4108 74.3111C42.2489 74.2302 42.0916 74.1111 41.9744 73.9353C41.8579 73.7605 41.775 73.5206 41.775 73.1875C41.775 72.5046 42.1215 71.1017 43.1764 69.8711C44.2251 68.6475 45.9799 67.5875 48.8125 67.5875C51.6451 67.5875 53.3999 68.6475 54.4486 69.8711C55.5035 71.1017 55.85 72.5046 55.85 73.1875Z" fill="white" stroke="white" stroke-width="0.3"/>
<path d="M48.8125 64.7125C50.4832 64.7125 51.8375 63.3582 51.8375 61.6875C51.8375 60.0168 50.4832 58.6625 48.8125 58.6625C47.1418 58.6625 45.7875 60.0168 45.7875 61.6875C45.7875 63.3582 47.1418 64.7125 48.8125 64.7125ZM52.975 61.6875C52.975 63.9864 51.1114 65.85 48.8125 65.85C46.5136 65.85 44.65 63.9864 44.65 61.6875C44.65 59.3886 46.5136 57.525 48.8125 57.525C51.1114 57.525 52.975 59.3886 52.975 61.6875Z" fill="white" stroke="white" stroke-width="0.3"/>
<path d="M40.1981 68.9578L40.3521 68.7224L40.0708 68.7257C37.6316 68.7538 36.2279 69.663 35.415 70.6113C34.5365 71.6363 34.2875 72.7768 34.2875 73.1875V73.3375H34.4375H38.75H38.9V73.1875C38.9 71.7158 39.3542 70.2476 40.1981 68.9578ZM41.1884 67.6343C41.72 67.6856 42.2073 67.7775 42.6535 67.9017C42.2761 68.2155 41.9373 68.5563 41.6385 68.9177C40.5935 70.1816 40.0375 71.6979 40.0375 73.1875C40.0375 73.6605 40.1165 74.0933 40.2678 74.475H34.4375C33.9815 74.475 33.667 74.3611 33.4654 74.1596C33.2639 73.958 33.15 73.6435 33.15 73.1875C33.15 72.5046 33.4965 71.1017 34.5514 69.8711C35.6001 68.6475 37.3549 67.5875 40.1875 67.5875C40.5375 67.5875 40.8709 67.6037 41.1884 67.6343Z" fill="white" stroke="white" stroke-width="0.3"/>
<path fill-rule="evenodd" clip-rule="evenodd" d="M35.1562 62.4062C35.1562 60.0245 37.087 58.0938 39.4688 58.0938C41.8505 58.0938 43.7812 60.0245 43.7812 62.4062C43.7812 64.788 41.8505 66.7188 39.4688 66.7188C37.087 66.7188 35.1562 64.788 35.1562 62.4062ZM39.4688 59.5312C37.8809 59.5312 36.5938 60.8184 36.5938 62.4062C36.5938 63.9941 37.8809 65.2812 39.4688 65.2812C41.0566 65.2812 42.3438 63.9941 42.3438 62.4062C42.3438 60.8184 41.0566 59.5312 39.4688 59.5312Z" fill="white" stroke="white" stroke-width="0.3"/>
<path d="M75.8 66.61C76.36 66.61 76.8533 66.5433 77.28 66.41C77.7133 66.27 78.0733 66.0767 78.36 65.83C78.6533 65.5767 78.8733 65.2767 79.02 64.93C79.1667 64.5833 79.24 64.2 79.24 63.78C79.24 62.9267 78.96 62.2833 78.4 61.85C77.84 61.4167 77 61.2 75.88 61.2H73.76V66.61H75.8ZM82.42 74H80.7C80.3467 74 80.0867 73.8633 79.92 73.59L76.2 68.47C76.0867 68.31 75.9633 68.1967 75.83 68.13C75.7033 68.0567 75.5033 68.02 75.23 68.02H73.76V74H71.83V59.67H75.88C76.7867 59.67 77.57 59.7633 78.23 59.95C78.89 60.13 79.4333 60.3933 79.86 60.74C80.2933 61.0867 80.6133 61.5067 80.82 62C81.0267 62.4867 81.13 63.0333 81.13 63.64C81.13 64.1467 81.05 64.62 80.89 65.06C80.73 65.5 80.4967 65.8967 80.19 66.25C79.89 66.5967 79.52 66.8933 79.08 67.14C78.6467 67.3867 78.1533 67.5733 77.6 67.7C77.8467 67.84 78.06 68.0433 78.24 68.31L82.42 74ZM90.0845 67.83C90.0845 67.4167 90.0245 67.04 89.9045 66.7C89.7912 66.3533 89.6212 66.0567 89.3945 65.81C89.1745 65.5567 88.9045 65.3633 88.5845 65.23C88.2645 65.09 87.9012 65.02 87.4945 65.02C86.6412 65.02 85.9645 65.27 85.4645 65.77C84.9712 66.2633 84.6645 66.95 84.5445 67.83H90.0845ZM91.5245 72.58C91.3045 72.8467 91.0412 73.08 90.7345 73.28C90.4279 73.4733 90.0979 73.6333 89.7445 73.76C89.3979 73.8867 89.0379 73.98 88.6645 74.04C88.2912 74.1067 87.9212 74.14 87.5545 74.14C86.8545 74.14 86.2079 74.0233 85.6145 73.79C85.0279 73.55 84.5179 73.2033 84.0845 72.75C83.6579 72.29 83.3245 71.7233 83.0845 71.05C82.8445 70.3767 82.7245 69.6033 82.7245 68.73C82.7245 68.0233 82.8312 67.3633 83.0445 66.75C83.2645 66.1367 83.5779 65.6067 83.9845 65.16C84.3912 64.7067 84.8879 64.3533 85.4745 64.1C86.0612 63.84 86.7212 63.71 87.4545 63.71C88.0612 63.71 88.6212 63.8133 89.1345 64.02C89.6545 64.22 90.1012 64.5133 90.4745 64.9C90.8545 65.28 91.1512 65.7533 91.3645 66.32C91.5779 66.88 91.6845 67.52 91.6845 68.24C91.6845 68.52 91.6545 68.7067 91.5945 68.8C91.5345 68.8933 91.4212 68.94 91.2545 68.94H84.4845C84.5045 69.58 84.5912 70.1367 84.7445 70.61C84.9045 71.0833 85.1245 71.48 85.4045 71.8C85.6845 72.1133 86.0179 72.35 86.4045 72.51C86.7912 72.6633 87.2245 72.74 87.7045 72.74C88.1512 72.74 88.5345 72.69 88.8545 72.59C89.1812 72.4833 89.4612 72.37 89.6945 72.25C89.9279 72.13 90.1212 72.02 90.2745 71.92C90.4345 71.8133 90.5712 71.76 90.6845 71.76C90.8312 71.76 90.9445 71.8167 91.0245 71.93L91.5245 72.58ZM94.4333 74V65.39L93.3133 65.26C93.1733 65.2267 93.0566 65.1767 92.9633 65.11C92.8766 65.0367 92.8333 64.9333 92.8333 64.8V64.07H94.4333V63.09C94.4333 62.51 94.5133 61.9967 94.6733 61.55C94.8399 61.0967 95.0733 60.7167 95.3733 60.41C95.6799 60.0967 96.0466 59.86 96.4733 59.7C96.8999 59.54 97.3799 59.46 97.9133 59.46C98.3666 59.46 98.7833 59.5267 99.1633 59.66L99.1233 60.55C99.1099 60.71 99.0199 60.7967 98.8533 60.81C98.6933 60.8233 98.4766 60.83 98.2033 60.83C97.8966 60.83 97.6166 60.87 97.3633 60.95C97.1166 61.03 96.9033 61.16 96.7233 61.34C96.5433 61.52 96.4033 61.7567 96.3033 62.05C96.2099 62.3433 96.1633 62.7067 96.1633 63.14V64.07H99.0833V65.36H96.2233V74H94.4333ZM107.233 67.83C107.233 67.4167 107.173 67.04 107.053 66.7C106.94 66.3533 106.77 66.0567 106.543 65.81C106.323 65.5567 106.053 65.3633 105.733 65.23C105.413 65.09 105.05 65.02 104.643 65.02C103.79 65.02 103.113 65.27 102.613 65.77C102.12 66.2633 101.813 66.95 101.693 67.83H107.233ZM108.673 72.58C108.453 72.8467 108.19 73.08 107.883 73.28C107.576 73.4733 107.246 73.6333 106.893 73.76C106.546 73.8867 106.186 73.98 105.813 74.04C105.44 74.1067 105.07 74.14 104.703 74.14C104.003 74.14 103.356 74.0233 102.763 73.79C102.176 73.55 101.666 73.2033 101.233 72.75C100.806 72.29 100.473 71.7233 100.233 71.05C99.993 70.3767 99.873 69.6033 99.873 68.73C99.873 68.0233 99.9796 67.3633 100.193 66.75C100.413 66.1367 100.726 65.6067 101.133 65.16C101.54 64.7067 102.036 64.3533 102.623 64.1C103.21 63.84 103.87 63.71 104.603 63.71C105.21 63.71 105.77 63.8133 106.283 64.02C106.803 64.22 107.25 64.5133 107.623 64.9C108.003 65.28 108.3 65.7533 108.513 66.32C108.726 66.88 108.833 67.52 108.833 68.24C108.833 68.52 108.803 68.7067 108.743 68.8C108.683 68.8933 108.57 68.94 108.403 68.94H101.633C101.653 69.58 101.74 70.1367 101.893 70.61C102.053 71.0833 102.273 71.48 102.553 71.8C102.833 72.1133 103.166 72.35 103.553 72.51C103.94 72.6633 104.373 72.74 104.853 72.74C105.3 72.74 105.683 72.69 106.003 72.59C106.33 72.4833 106.61 72.37 106.843 72.25C107.076 72.13 107.27 72.02 107.423 71.92C107.583 71.8133 107.72 71.76 107.833 71.76C107.98 71.76 108.093 71.8167 108.173 71.93L108.673 72.58ZM112.709 65.9C113.029 65.2067 113.423 64.6667 113.889 64.28C114.356 63.8867 114.926 63.69 115.599 63.69C115.813 63.69 116.016 63.7133 116.209 63.76C116.409 63.8067 116.586 63.88 116.739 63.98L116.609 65.31C116.569 65.4767 116.469 65.56 116.309 65.56C116.216 65.56 116.079 65.54 115.899 65.5C115.719 65.46 115.516 65.44 115.289 65.44C114.969 65.44 114.683 65.4867 114.429 65.58C114.183 65.6733 113.959 65.8133 113.759 66C113.566 66.18 113.389 66.4067 113.229 66.68C113.076 66.9467 112.936 67.2533 112.809 67.6V74H111.019V63.87H112.039C112.233 63.87 112.366 63.9067 112.439 63.98C112.513 64.0533 112.563 64.18 112.589 64.36L112.709 65.9ZM123.638 69.44C122.818 69.4667 122.118 69.5333 121.538 69.64C120.965 69.74 120.495 69.8733 120.128 70.04C119.768 70.2067 119.505 70.4033 119.338 70.63C119.178 70.8567 119.098 71.11 119.098 71.39C119.098 71.6567 119.142 71.8867 119.228 72.08C119.315 72.2733 119.432 72.4333 119.578 72.56C119.732 72.68 119.908 72.77 120.108 72.83C120.315 72.8833 120.535 72.91 120.768 72.91C121.082 72.91 121.368 72.88 121.628 72.82C121.888 72.7533 122.132 72.66 122.358 72.54C122.592 72.42 122.812 72.2767 123.018 72.11C123.232 71.9433 123.438 71.7533 123.638 71.54V69.44ZM117.888 65.3C118.448 64.76 119.052 64.3567 119.698 64.09C120.345 63.8233 121.062 63.69 121.848 63.69C122.415 63.69 122.918 63.7833 123.358 63.97C123.798 64.1567 124.168 64.4167 124.468 64.75C124.768 65.0833 124.995 65.4867 125.148 65.96C125.302 66.4333 125.378 66.9533 125.378 67.52V74H124.588C124.415 74 124.282 73.9733 124.188 73.92C124.095 73.86 124.022 73.7467 123.968 73.58L123.768 72.62C123.502 72.8667 123.242 73.0867 122.988 73.28C122.735 73.4667 122.468 73.6267 122.188 73.76C121.908 73.8867 121.608 73.9833 121.288 74.05C120.975 74.1233 120.625 74.16 120.238 74.16C119.845 74.16 119.475 74.1067 119.128 74C118.782 73.8867 118.478 73.72 118.218 73.5C117.965 73.28 117.762 73.0033 117.608 72.67C117.462 72.33 117.388 71.93 117.388 71.47C117.388 71.07 117.498 70.6867 117.718 70.32C117.938 69.9467 118.295 69.6167 118.788 69.33C119.282 69.0433 119.925 68.81 120.718 68.63C121.512 68.4433 122.485 68.3367 123.638 68.31V67.52C123.638 66.7333 123.468 66.14 123.128 65.74C122.788 65.3333 122.292 65.13 121.638 65.13C121.198 65.13 120.828 65.1867 120.528 65.3C120.235 65.4067 119.978 65.53 119.758 65.67C119.545 65.8033 119.358 65.9267 119.198 66.04C119.045 66.1467 118.892 66.2 118.738 66.2C118.618 66.2 118.515 66.17 118.428 66.11C118.342 66.0433 118.268 65.9633 118.208 65.87L117.888 65.3ZM129.93 59.27V74H128.15V59.27H129.93ZM134.656 59.27V74H132.876V59.27H134.656Z" fill="#575AC2"/>
<defs>
<filter id="filter0_d_21010_3312" x="0.569841" y="0.893862" width="180.86" height="135.86" filterUnits="userSpaceOnUse" color-interpolation-filters="sRGB">
<feFlood flood-opacity="0" result="BackgroundImageFix"/>
<feColorMatrix in="SourceAlpha" type="matrix" values="0 0 0 0 0 0 0 0 0 0 0 0 0 0 0 0 0 0 127 0" result="hardAlpha"/>
<feOffset dy="2.32402"/>
<feGaussianBlur stdDeviation="8.71508"/>
<feComposite in2="hardAlpha" operator="out"/>
<feColorMatrix type="matrix" values="0 0 0 0 0 0 0 0 0 0 0 0 0 0 0 0 0 0 0.02 0"/>
<feBlend mode="normal" in2="BackgroundImageFix" result="effect1_dropShadow_21010_3312"/>
<feBlend mode="normal" in="SourceGraphic" in2="effect1_dropShadow_21010_3312" result="shape"/>
</filter>
<filter id="filter1_bii_21010_3312" x="25.0492" y="48.0492" width="36.9519" height="36.9519" filterUnits="userSpaceOnUse" color-interpolation-filters="sRGB">
<feFlood flood-opacity="0" result="BackgroundImageFix"/>
<feGaussianBlur in="BackgroundImage" stdDeviation="1.97542"/>
<feComposite in2="SourceAlpha" operator="in" result="effect1_backgroundBlur_21010_3312"/>
<feBlend mode="normal" in="SourceGraphic" in2="effect1_backgroundBlur_21010_3312" result="shape"/>
<feColorMatrix in="SourceAlpha" type="matrix" values="0 0 0 0 0 0 0 0 0 0 0 0 0 0 0 0 0 0 127 0" result="hardAlpha"/>
<feOffset dx="2.32402" dy="2.32402"/>
<feGaussianBlur stdDeviation="7.26257"/>
<feComposite in2="hardAlpha" operator="arithmetic" k2="-1" k3="1"/>
<feColorMatrix type="matrix" values="0 0 0 0 1 0 0 0 0 1 0 0 0 0 1 0 0 0 0.49 0"/>
<feBlend mode="normal" in2="shape" result="effect2_innerShadow_21010_3312"/>
<feColorMatrix in="SourceAlpha" type="matrix" values="0 0 0 0 0 0 0 0 0 0 0 0 0 0 0 0 0 0 127 0" result="hardAlpha"/>
<feOffset dx="-3.48603" dy="-1.93668"/>
<feGaussianBlur stdDeviation="5.81005"/>
<feComposite in2="hardAlpha" operator="arithmetic" k2="-1" k3="1"/>
<feColorMatrix type="matrix" values="0 0 0 0 0.95 0 0 0 0 0.30875 0 0 0 0 0.30875 0 0 0 1 0"/>
<feBlend mode="normal" in2="effect2_innerShadow_21010_3312" result="effect3_innerShadow_21010_3312"/>
</filter>
</defs>
</svg>
