<svg width="19" height="19" viewBox="0 0 19 19" fill="none" xmlns="http://www.w3.org/2000/svg">
<path fill-rule="evenodd" clip-rule="evenodd" d="M15.1071 13.6135L18.6907 17.1982C19.1034 17.6109 19.1034 18.278 18.6907 18.6907C18.4849 18.8966 18.2147 19 17.9444 19C17.6742 19 17.404 18.8966 17.1982 18.6907L13.6135 15.1071C12.1843 16.2186 10.393 16.8889 8.44444 16.8889C3.78839 16.8889 0 13.1005 0 8.44444C0 3.78839 3.78839 0 8.44444 0C13.1005 0 16.8889 3.78839 16.8889 8.44444C16.8889 10.393 16.2186 12.1843 15.1071 13.6135ZM8.44451 2.11106C4.95168 2.11106 2.11118 4.95156 2.11118 8.44439C2.11118 11.9372 4.95168 14.7777 8.44451 14.7777C11.9373 14.7777 14.7778 11.9372 14.7778 8.44439C14.7778 4.95156 11.9373 2.11106 8.44451 2.11106Z" fill="#575AC2" fill-opacity="0.5"/>
<mask id="mask0_20696_4939" style="mask-type:alpha" maskUnits="userSpaceOnUse" x="0" y="0" width="20" height="19">
<path fill-rule="evenodd" clip-rule="evenodd" d="M15.1071 13.6135L18.6907 17.1982C19.1034 17.6109 19.1034 18.278 18.6907 18.6907C18.4849 18.8966 18.2147 19 17.9444 19C17.6742 19 17.404 18.8966 17.1982 18.6907L13.6135 15.1071C12.1843 16.2186 10.393 16.8889 8.44444 16.8889C3.78839 16.8889 0 13.1005 0 8.44444C0 3.78839 3.78839 0 8.44444 0C13.1005 0 16.8889 3.78839 16.8889 8.44444C16.8889 10.393 16.2186 12.1843 15.1071 13.6135ZM8.44451 2.11106C4.95168 2.11106 2.11118 4.95156 2.11118 8.44439C2.11118 11.9372 4.95168 14.7777 8.44451 14.7777C11.9373 14.7777 14.7778 11.9372 14.7778 8.44439C14.7778 4.95156 11.9373 2.11106 8.44451 2.11106Z" fill="white"/>
</mask>
<g mask="url(#mask0_20696_4939)">
</g>
</svg>
