<svg width="297" height="126" viewBox="0 0 297 126" fill="none" xmlns="http://www.w3.org/2000/svg">
<path d="M54.414 68.2003C28.046 68.2003 52.4964 100.686 2.15738 100.686L0 125.679H297L297 59.664C272.55 59.664 293.165 28.3643 271.111 28.3643C249.058 28.3643 266.077 52.7876 239.949 52.7876C213.821 52.7876 216.937 0.858398 195.363 0.858398C173.789 0.858398 170.913 83.376 161.564 83.376C152.215 83.376 162.283 65.8291 143.826 65.8291C125.368 65.8291 138.073 38.3233 127.525 38.3233C102.835 38.3233 115.78 89.0668 88.2131 89.0668C60.6465 89.0668 80.7821 68.2003 54.414 68.2003Z" fill="url(#paint0_linear_20681_5096)"/>
<defs>
<linearGradient id="paint0_linear_20681_5096" x1="152.245" y1="-10.2856" x2="152.245" y2="115.245" gradientUnits="userSpaceOnUse">
<stop stop-color="#7780EA"/>
<stop offset="1" stop-color="#7C81EB" stop-opacity="0"/>
</linearGradient>
</defs>
</svg>
