<svg width="19" height="18" viewBox="0 0 19 18" fill="none" xmlns="http://www.w3.org/2000/svg">
<path d="M10.2937 4.12602C10.7728 4.12602 11.1612 3.73765 11.1612 3.25857C11.1612 2.77948 10.7728 2.39111 10.2937 2.39111C9.81464 2.39111 9.42627 2.77948 9.42627 3.25857C9.42627 3.73765 9.81464 4.12602 10.2937 4.12602Z" stroke="#4A4B57" stroke-width="1.1087" stroke-linecap="round" stroke-linejoin="round"/>
<path d="M12.0285 16.2705L11.3362 14.1938C11.221 13.8481 11.0269 13.534 10.7692 13.2763L8.55865 11.0658M8.55865 11.0658L9.42611 6.72852M8.55865 11.0658L5.9563 16.2705M9.42611 6.72852L11.7591 9.06153C11.9375 9.23992 12.1435 9.38839 12.3691 9.50122L13.7634 10.1983M9.42611 6.72852L7.49384 8.01669C7.05954 8.30623 6.73414 8.73226 6.56908 9.22744L5.9563 11.0658" stroke="#4A4B57" stroke-width="1.1087" stroke-linecap="round" stroke-linejoin="round"/>
</svg>
