<svg width="15" height="15" viewBox="0 0 15 15" fill="none" xmlns="http://www.w3.org/2000/svg">
<path d="M7.51563 1C6.22696 1 4.96723 1.38213 3.89574 2.09808C2.82425 2.81403 1.98913 3.83163 1.49598 5.0222C1.00282 6.21278 0.873792 7.52285 1.1252 8.78676C1.37661 10.0507 1.99716 11.2116 2.90839 12.1229C3.81961 13.0341 4.98058 13.6546 6.24449 13.9061C7.5084 14.1575 8.81847 14.0284 10.009 13.5353C11.1996 13.0421 12.2172 12.207 12.9332 11.1355C13.6491 10.064 14.0313 8.80429 14.0313 7.51562C14.0313 5.78757 13.3448 4.1303 12.1229 2.90838C10.901 1.68647 9.24368 1 7.51563 1Z" stroke="#575AC2" stroke-opacity="0.6" stroke-width="1.18466" stroke-miterlimit="10"/>
<path d="M5.4425 5.52725C5.4425 5.52725 5.4736 4.87939 6.167 4.32149C6.5783 3.99016 7.07141 3.89427 7.51566 3.88761C7.92029 3.88243 8.28161 3.94943 8.49781 4.05235C8.86802 4.22857 9.58881 4.65875 9.58881 5.57353C9.58881 6.53606 8.95946 6.97328 8.24237 7.45417C7.52528 7.93507 7.33056 8.45706 7.33056 8.99645" stroke="#575AC2" stroke-opacity="0.6" stroke-width="1.03658" stroke-miterlimit="10" stroke-linecap="round"/>
<path d="M7.29339 11.662C7.70231 11.662 8.0338 11.3305 8.0338 10.9216C8.0338 10.5126 7.70231 10.1812 7.29339 10.1812C6.88447 10.1812 6.55298 10.5126 6.55298 10.9216C6.55298 11.3305 6.88447 11.662 7.29339 11.662Z" fill="#575AC2" fill-opacity="0.6"/>
</svg>
