<svg width="16" height="16" viewBox="0 0 16 16" fill="none" xmlns="http://www.w3.org/2000/svg">
<path d="M3.22521 11.5001H1.07507V14.7253H3.22521V11.5001ZM8.60055 7.1998H6.45041V14.7253H8.60055V7.1998ZM13.9759 1.82446V14.7253H11.8258V1.82446H13.9759ZM11.8258 0.74939C11.5406 0.74939 11.2672 0.862655 11.0656 1.06427C10.864 1.26588 10.7507 1.53933 10.7507 1.82446V14.7253C10.7507 15.0104 10.864 15.2839 11.0656 15.4855C11.2672 15.6871 11.5406 15.8003 11.8258 15.8003H13.9759C14.261 15.8003 14.5345 15.6871 14.7361 15.4855C14.9377 15.2839 15.051 15.0104 15.051 14.7253V1.82446C15.051 1.53933 14.9377 1.26588 14.7361 1.06427C14.5345 0.862655 14.261 0.74939 13.9759 0.74939H11.8258ZM5.37534 7.1998C5.37534 6.91467 5.48861 6.64123 5.69022 6.43961C5.89184 6.238 6.16529 6.12473 6.45041 6.12473H8.60055C8.88567 6.12473 9.15912 6.238 9.36074 6.43961C9.56235 6.64123 9.67562 6.91467 9.67562 7.1998V14.7253C9.67562 15.0104 9.56235 15.2839 9.36074 15.4855C9.15912 15.6871 8.88567 15.8003 8.60055 15.8003H6.45041C6.16529 15.8003 5.89184 15.6871 5.69022 15.4855C5.48861 15.2839 5.37534 15.0104 5.37534 14.7253V7.1998ZM0 11.5001C0 11.2149 0.113266 10.9415 0.31488 10.7399C0.516495 10.5383 0.789943 10.425 1.07507 10.425H3.22521C3.51033 10.425 3.78378 10.5383 3.98539 10.7399C4.18701 10.9415 4.30027 11.2149 4.30027 11.5001V14.7253C4.30027 15.0104 4.18701 15.2839 3.98539 15.4855C3.78378 15.6871 3.51033 15.8003 3.22521 15.8003H1.07507C0.789943 15.8003 0.516495 15.6871 0.31488 15.4855C0.113266 15.2839 0 15.0104 0 14.7253V11.5001Z" fill="#575AC2" fill-opacity="0.6"/>
</svg>
