<svg width="15" height="15" viewBox="0 0 15 15" fill="none" xmlns="http://www.w3.org/2000/svg">
<path fill-rule="evenodd" clip-rule="evenodd" d="M2.34375 0.46875C2.34375 0.209867 2.55362 0 2.8125 0H12.1875C12.4464 0 12.6562 0.209867 12.6562 0.46875C12.6562 0.972679 12.6451 1.4523 12.6239 1.90865C13.97 2.11834 15 3.28263 15 4.6875C15 6.2408 13.7408 7.5 12.1875 7.5C11.9729 7.5 11.7636 7.47589 11.5622 7.43014C10.8218 9.17885 9.8015 10.0338 8.90625 10.2539V12.2903L10.2425 12.6243C10.4244 12.6698 10.5953 12.7511 10.7452 12.8636L12.4688 14.1562C12.6302 14.2773 12.696 14.4881 12.6322 14.6795C12.5684 14.8709 12.3893 15 12.1875 15H2.8125C2.61074 15 2.43161 14.8709 2.3678 14.6795C2.304 14.4881 2.36984 14.2773 2.53125 14.1562L4.25479 12.8636C4.40474 12.7511 4.57565 12.6698 4.75748 12.6243L6.09375 12.2903V10.2539C5.1985 10.0338 4.17823 9.17885 3.43776 7.43014C3.23641 7.47589 3.02709 7.5 2.8125 7.5C1.2592 7.5 0 6.2408 0 4.6875C0 3.28263 1.03004 2.11834 2.37611 1.90865C2.35488 1.4523 2.34375 0.972679 2.34375 0.46875ZM2.43656 2.8502C1.58119 3.02429 0.9375 3.78072 0.9375 4.6875C0.9375 5.72303 1.77697 6.5625 2.8125 6.5625C2.91421 6.5625 3.01385 6.55444 3.11087 6.53896C2.79926 5.55503 2.55996 4.34014 2.43656 2.8502ZM11.8891 6.53896C11.9862 6.55444 12.0858 6.5625 12.1875 6.5625C13.223 6.5625 14.0625 5.72303 14.0625 4.6875C14.0625 3.78072 13.4188 3.02429 12.5634 2.8502C12.44 4.34014 12.2007 5.55503 11.8891 6.53896ZM3.28462 0.9375C3.29168 1.42197 3.30965 1.8806 3.33733 2.3146C3.45859 4.21586 3.76575 5.63935 4.15296 6.68984C4.96332 8.88833 6.07845 9.375 6.5625 9.375C6.82138 9.375 7.03125 9.58487 7.03125 9.84375V12.2903C7.03125 12.7204 6.73847 13.0954 6.32113 13.1998L4.98486 13.5338C4.92425 13.549 4.86728 13.5761 4.81729 13.6136L4.21875 14.0625H10.7812L10.1827 13.6136C10.1327 13.5761 10.0758 13.549 10.0151 13.5338L8.67887 13.1998C8.26153 13.0954 7.96875 12.7204 7.96875 12.2903V9.84375C7.96875 9.58487 8.17862 9.375 8.4375 9.375C8.92155 9.375 10.0367 8.88833 10.847 6.68984C11.2343 5.63935 11.5414 4.21586 11.6627 2.3146C11.6903 1.8806 11.7083 1.42197 11.7154 0.9375H3.28462Z" fill="#575AC2" fill-opacity="0.6"/>
</svg>
